<svg xmlns="http://www.w3.org/2000/svg" xmlns:xlink="http://www.w3.org/1999/xlink" version="1.1" id="PRINT" x="0px" y="0px" viewBox="0 0 595.276 841.89" style="enable-background:new 0 0 595.276 841.89;" xml:space="preserve">
<g>
	<g>
		<g>
			<path style="fill:#EFC7C7;" d="M336.473,654.485c0,0,85.654,18.121,145.099-42.889c34.233-35.134,44.5-53.555,55.644-77.169     c15.21-32.23,25.954-56.208,15.113-108.981c-10.168-49.496-34.766-96.99-96.909-120.698     c-21.042-8.028-49.423-6.802-78.006-25.308c-33.988-22.006-79.491-43.432-139.229-30.524     c-30.432,6.576-101.007,37.69-132.077,120.747c-13.153,35.16-36.28,47.773-53.003,96.46     c-10.003,29.123-8.733,69.913,10.56,107.223c9.323,18.03,27.164,35.144,48.255,51.355c28.082,21.585,62.717,33.97,107.3,34.343     c24.267,0.203,30.406-0.715,53.251-2.286C296.455,655.109,336.473,654.485,336.473,654.485z"/>
			<path style="fill:#EFC7C7;" d="M230.838,661.591c-11.761,0-24.113-0.613-36.958-2.184c-27.221-3.329-69.459-18.042-97.869-42.478     c-47.453-40.815-65.828-105.848-45.726-161.827c9.905-27.584,20.016-42.494,29.794-56.913     c7.97-11.751,15.497-22.852,22.005-39.998c32.17-84.756,101.44-120.311,133.573-127.269     c64.079-13.875,123.04,6.624,156.849,30.438c16.273,11.461,30.556,16.248,47.094,21.789c13.256,4.443,26.964,9.036,43.43,17.652     c40.319,21.098,65.76,55.987,75.617,103.697c12.076,58.445,6.375,87.697-9.201,124.246c-1.388,3.257-2.638,6.3-3.833,9.206     c-8.483,20.637-14.086,34.271-44.627,68.052c-23.427,25.911-53.641,42.964-89.8,50.684c-30.45,6.502-52.804,3.591-53.025,3.562     c-19.538-2.648-51.271-4.737-76.411-1.906C266.529,660.058,249.422,661.591,230.838,661.591z M277.885,231.548     c-13.314,0-27.097,1.348-41.14,4.39c-15.115,3.273-40.027,13.809-64.616,33.563c-29.076,23.359-51.638,54.658-65.246,90.512     c-6.722,17.707-14.413,29.049-22.556,41.057c-9.6,14.155-19.526,28.792-29.212,55.766     C35.725,510.828,53.505,573.6,99.356,613.039c27.6,23.739,68.668,38.037,95.146,41.275c32.615,3.987,62.116,1.697,86.672-1.07     c25.607-2.882,57.846-0.766,77.674,1.921c0.214,0.03,22.151,2.719,51.265-3.495c35.084-7.491,64.376-24.014,87.065-49.108     c29.941-33.117,35.411-46.423,43.688-66.561c1.202-2.925,2.462-5.989,3.859-9.267c15.159-35.57,20.697-64.081,8.896-121.195     c-9.53-46.132-34.082-79.84-72.971-100.19c-16.104-8.427-29.615-12.954-42.681-17.333c-16.215-5.434-31.531-10.566-48.417-22.46     C364.033,247.582,323.781,231.548,277.885,231.548z"/>
		</g>
		<g>
			<path style="fill:#EFC7C7;" d="M411.113,244.868c0,3.694-2.994,6.688-6.688,6.688c-3.694,0-6.688-2.994-6.688-6.688     c0-3.694,2.994-6.688,6.688-6.688C408.119,238.18,411.113,241.174,411.113,244.868z"/>
			<path style="fill:#EFC7C7;" d="M50.449,440.862c0,3.694-2.994,6.688-6.688,6.688c-3.694,0-6.688-2.994-6.688-6.688     c0-3.694,2.994-6.688,6.688-6.688C47.455,434.174,50.449,437.169,50.449,440.862z"/>
			<path style="fill:#EFC7C7;" d="M574.133,358.49c0,3.694-2.994,6.688-6.688,6.688c-3.694,0-6.688-2.994-6.688-6.688     c0-3.694,2.994-6.688,6.688-6.688C571.139,351.802,574.133,354.796,574.133,358.49z"/>
			<path style="fill:#EFC7C7;" d="M421.941,259.72c0,2.216-1.797,4.013-4.013,4.013c-2.216,0-4.013-1.797-4.013-4.013     c0-2.216,1.797-4.013,4.013-4.013C420.145,255.707,421.941,257.504,421.941,259.72z"/>
			<path style="fill:#EFC7C7;" d="M137.515,648.733c0,1.859-1.507,3.365-3.365,3.365c-1.859,0-3.365-1.507-3.365-3.365     c0-1.859,1.507-3.365,3.365-3.365C136.009,645.368,137.515,646.874,137.515,648.733z"/>
			<circle style="fill:#EFC7C7;" cx="41.617" cy="458.322" r="3.365"/>
			<path style="fill:#EFC7C7;" d="M480.679,214.711c0,2.216-1.797,4.013-4.013,4.013c-2.216,0-4.013-1.797-4.013-4.013     c0-2.216,1.797-4.013,4.013-4.013C478.883,210.698,480.679,212.495,480.679,214.711z"/>
			<circle style="fill:#EFC7C7;" cx="102.422" cy="335.745" r="4.013"/>
			<path style="fill:#EFC7C7;" d="M502.077,623.547c0,2.216-1.797,4.013-4.013,4.013c-2.216,0-4.013-1.797-4.013-4.013     c0-2.216,1.797-4.013,4.013-4.013C500.281,619.534,502.077,621.331,502.077,623.547z"/>
			<path style="fill:#EFC7C7;" d="M506.717,611.805c0,1.536-1.245,2.782-2.781,2.782c-1.536,0-2.782-1.245-2.782-2.782     c0-1.536,1.245-2.781,2.782-2.781C505.472,609.023,506.717,610.269,506.717,611.805z"/>
			<path style="fill:#EFC7C7;" d="M158.58,268.277c0,1.532-1.242,2.774-2.774,2.774c-1.532,0-2.774-1.242-2.774-2.774     c0-1.532,1.242-2.774,2.774-2.774C157.338,265.503,158.58,266.745,158.58,268.277z"/>
		</g>
		<g>
			<path style="fill:#FFEBEB;" d="M457.734,364.159c0,2.043-1.656,3.699-3.699,3.699s-3.699-1.656-3.699-3.699     s1.656-3.699,3.699-3.699S457.734,362.116,457.734,364.159z"/>
			<path style="fill:#FFEBEB;" d="M121.956,503.605c0,2.216-1.797,4.013-4.013,4.013c-2.216,0-4.013-1.797-4.013-4.013     c0-2.216,1.797-4.013,4.013-4.013C120.159,499.593,121.956,501.389,121.956,503.605z"/>
			<circle style="fill:#FFEBEB;" cx="457.581" cy="560.913" r="4.013"/>
			<circle style="fill:#FFEBEB;" cx="414.042" cy="443.39" r="2.675"/>
			<path style="fill:#FFEBEB;" d="M111.658,493.978c0,1.477-1.198,2.675-2.675,2.675c-1.478,0-2.675-1.198-2.675-2.675     c0-1.478,1.198-2.675,2.675-2.675C110.46,491.302,111.658,492.5,111.658,493.978z"/>
			<circle style="fill:#FFEBEB;" cx="541.212" cy="441.432" r="5.315"/>
		</g>
	</g>
	<g>
		<g>
			<path style="fill:#FE9F9F;" d="M362.101,607.296l-0.162-2.208c0.389-0.029,39.484-3.163,87.757-28.337     c31.679-18.433,51.42-47.401,51.616-47.692l1.836,1.237c-0.198,0.294-20.207,29.672-52.384,48.393     C402.014,604.114,362.495,607.268,362.101,607.296z"/>
			<g>
				<path style="fill:#FE9F9F;" d="M490.042,527.906c2.051-23.42-7.202-38.89-7.202-38.89s-11.937,10.682-14.884,31.362      c-2.214,15.539,9.422,36.884,9.422,36.884S488.711,543.084,490.042,527.906z"/>
				<path style="fill:#FE9F9F;" d="M458.066,545.014c-4.19-11.256-20.514-22.32-20.514-22.32s-1.402,13.006,1.537,23.837      c3.796,13.992,14.807,21.149,21.648,24.9C462.075,562.759,461.723,553.315,458.066,545.014z"/>
				<path style="fill:#FE9F9F;" d="M534.316,513.397c12.155-13.676,15.905-31.349,15.905-31.349s-25.698,8.597-34.911,18.533      c-15.173,16.364-19.692,36.739-19.692,36.739S524.672,524.249,534.316,513.397z"/>
				<path style="fill:#FE9F9F;" d="M523.728,540.962c18.78-1.473,28.415-13.42,28.415-13.42s-14.602-7.017-28.566-4.257      c-22.12,5.824-27.591,14.769-27.591,14.769S511.761,541.9,523.728,540.962z"/>
				<path style="fill:#FE9F9F;" d="M507.599,580.201c18.073-1.404,25.444-8.484,25.444-8.484s-11.132-9.97-30.845-12.151      c-15.34-1.7-35.824,8.025-35.824,8.025S492.006,581.417,507.599,580.201z"/>
			</g>
		</g>
		<g>
			<path style="fill:#9DC1B4;" d="M383.471,582.552c12.02-16.111,31.87-19.329,31.87-19.329s4.039,21.198-7.943,36.129     c-11.988,14.928-35.364,18.781-35.364,18.781S374.671,594.343,383.471,582.552z"/>
			<path style="fill:#9DC1B4;" d="M401.881,645.974c16.864,1.753,43.108-11.309,43.108-11.309s-11.021-8.219-27.996-13.144     c-15.152-4.401-42.783,5.06-42.783,5.06S385.551,644.281,401.881,645.974z"/>
			<path style="fill:#9DC1B4;" d="M430.413,624.296c25.87-5.816,41.321-27.523,41.321-27.523s-18.333-11.004-46.855-7.061     c-24.396,3.373-45.938,29.705-45.938,29.705S405.364,629.935,430.413,624.296z"/>
		</g>
		<g>
			<path style="fill:#FE9F9F;" d="M302.609,506.232c-17.478-14.025-34.829-22.956-56.797-34.262     c-3.566-1.836-7.24-3.726-11.038-5.703c-25.366-13.205-42.92-36.767-55.737-53.971l-0.454-0.609     c-6.005-8.057-12.081-20.001-22.416-44.071c-8.797-20.485-20.659-29.754-20.777-29.845l1.907-2.493     c0.511,0.39,12.608,9.8,21.754,31.1c10.098,23.516,16.281,35.693,22.049,43.433l0.455,0.61     c12.636,16.961,29.942,40.189,54.67,53.062c3.793,1.975,7.462,3.863,11.024,5.697c22.125,11.387,39.601,20.382,57.326,34.605     L302.609,506.232z"/>
			<g>
				<path style="fill:#FE9F9F;" d="M165.607,385.256c0,0,15.809-9.329,19.637-16.41c6.173-11.418,4.878-26.259,4.878-26.259      s-16.138,4.427-22.171,16.856C161.915,371.868,165.607,385.256,165.607,385.256z"/>
				<path style="fill:#FE9F9F;" d="M150.283,352.395c0,0,10.923-8.411,16.379-22.212c6.422-16.247,2.953-29.455,2.953-29.455      s-12.293,5.27-19.173,24.741C145.794,338.627,150.283,352.395,150.283,352.395z"/>
				<path style="fill:#FE9F9F;" d="M141.605,341.247c0,0,3.879-25.857,3.441-36.317c-0.706-16.757-12.299-36.323-12.299-36.323      s-11.07,18.906-8.342,40.116C126.484,325.377,141.605,341.247,141.605,341.247z"/>
				<path style="fill:#FE9F9F;" d="M139.63,338.802c0,0-9.728-19.468-13.604-24.776c-8.372-11.47-24.913-14.812-24.913-14.812      s0.68,16.598,9.398,26.49C119.228,335.591,139.63,338.802,139.63,338.802z"/>
				<path style="fill:#FE9F9F;" d="M156.531,364.735c0,0-6.642-9.261-21.102-14.431c-17.837-6.378-35.734-1.535-35.734-1.535      s12.092,13.845,28.38,16.494C140.227,367.402,156.531,364.735,156.531,364.735z"/>
			</g>
		</g>
		<g>
			<g>
				<path style="fill:#9DC1B4;" d="M382.307,531.081l-1.475-2.549c16.616-9.614,38.585-25.375,50.208-38.913      c18.118-21.11,26.104-52.696,26.183-53.012l2.857,0.709c-0.08,0.323-8.238,32.586-26.805,54.221      C421.425,505.338,399.138,521.343,382.307,531.081z"/>
				<g>
					<path style="fill:#9DC1B4;" d="M445.973,469.643c0,0,4.541-10.144-0.57-19.414c-5.112-9.27-13.557-13.457-13.557-13.457       s-3.24,9.783,2.855,21.381C438.405,465.203,445.973,469.643,445.973,469.643z"/>
					<path style="fill:#9DC1B4;" d="M437.297,483.865c0,0,8.132-6.31,18.374-6.67c10.773-0.38,17.959,4.654,17.959,4.654       s-6.975,6.594-16.666,7.405C448.556,489.958,444.83,487.433,437.297,483.865z"/>
					<path style="fill:#9DC1B4;" d="M423.817,498.844c0,0,3.841-7.689,3.904-15.453c0.079-9.403-7.981-15.773-7.981-15.773       s-4.797,9.758-3.456,18.084C417.635,494.055,423.817,498.844,423.817,498.844z"/>
					<path style="fill:#9DC1B4;" d="M411.871,509.967c0,0,9.195-6.646,17.151-5.54c13.035,1.815,18.64,8.359,18.64,8.359       s-7.374,6.208-17.669,4.868C419.696,516.318,411.871,509.967,411.871,509.967z"/>
				</g>
			</g>
			<g>
				<path style="fill:#FE9F9F;" d="M456.673,437.982c-6.723-2.463-14.832-10.786-16.665-22.114      c-1.834-11.325-0.721-19.317,4.74-21.168c6.274-2.125,9.088,4.761,9.088,4.761s-0.802-12.511,7.794-15.965      c8.244-3.312,9.293,16.753,9.293,16.753s6.723-19.624,15.764-14.848c9.039,4.775-2.573,22.952-2.573,22.952      s13.916-7.25,16.396,1.181c2.48,8.431-5.278,18.015-15.89,24.662C476.672,439.174,464.495,440.848,456.673,437.982z"/>
				<path style="fill:#FFFFFF;" d="M465.603,440.446c-3.365,0-6.566-0.478-9.292-1.477c-7.201-2.638-15.47-11.362-17.342-22.934      c-2.086-12.888-0.256-20.401,5.44-22.332c3.796-1.287,6.659,0.32,8.474,2.333c0.405-4.201,2.057-10.987,8.354-13.516      c1.703-0.685,3.353-0.57,4.765,0.332c3.436,2.193,4.919,8.67,5.544,13.091c1.875-4.084,5.277-10.079,9.697-11.831      c1.992-0.791,3.988-0.669,5.935,0.359c1.884,0.996,3.12,2.563,3.673,4.659c1.405,5.32-2.031,12.9-4.218,16.967      c3.078-1.178,7.871-2.506,11.284-1.053c1.796,0.764,3.008,2.175,3.601,4.193c2.86,9.721-6.566,19.727-16.339,25.85      C479.65,438.549,472.303,440.446,465.603,440.446z M447.05,395.353c-0.605,0-1.26,0.104-1.965,0.343      c-5.702,1.933-5.344,11.945-4.04,20.004c1.743,10.773,9.363,18.867,15.988,21.295c7.481,2.741,19.35,1.12,27.027-3.69      c11.462-7.179,17.522-16.393,15.44-23.474c-0.414-1.406-1.202-2.338-2.408-2.851c-3.642-1.55-10.253,1.139-12.494,2.306      l-3.488,1.818l2.116-3.316c0.073-0.115,7.32-11.577,5.59-18.122c-0.404-1.525-1.261-2.616-2.622-3.335      c-1.396-0.738-2.764-0.826-4.179-0.263c-5.861,2.324-10.058,14.401-10.099,14.523l-1.759,5.135l-0.286-5.421      c-0.189-3.594-1.457-13.417-5.003-15.68c-0.85-0.543-1.758-0.59-2.848-0.152c-7.8,3.133-7.144,14.804-7.137,14.922l0.412,6.424      l-2.435-5.958C452.775,399.65,450.943,395.353,447.05,395.353z"/>
				<path style="fill:#9DC1B4;" d="M457.956,442.447c-10.06-2.305-22.237-14.317-17.019-19.579c3.053-3.081,10.737,4.76,10.737,4.76      s-6.339-12.48-2.435-14.667c5.436-3.043,7.338,10.078,7.338,10.078s0.126-11.614,6.483-12.182      c7.365-0.658,4.033,14.42,3.642,14.159c0,0,10.922-6.935,15.078-4.057c4.888,3.383-7.726,12.29-7.726,12.29      s13.846-5.176,15.048,1.726c0.514,2.959-6.385,6.645-14.055,8.007C468.591,444.129,461.593,443.278,457.956,442.447z"/>
			</g>
		</g>
		<g>
			<path style="fill:#9DC1B4;" d="M221.428,506.423c-0.348-0.024-35.238-2.685-74.571-31.77     c-30.932-22.871-38.88-50.117-39.203-51.266l2.834-0.799c0.077,0.272,8.045,27.46,38.12,49.697     c38.648,28.58,72.679,31.178,73.018,31.201L221.428,506.423z"/>
			<g>
				<path style="fill:#9DC1B4;" d="M123.234,449.237c0,0,14.793-13.726,17.154-26.539c3.141-17.052-3.432-28.611-3.432-28.611      s-11.367,9.731-15.937,28.704C118.058,435.086,123.234,449.237,123.234,449.237z"/>
				<path style="fill:#9DC1B4;" d="M110.942,428.331c2.006-8.509,5.474-21.045,3.477-30.445      c-2.303-10.852-8.082-18.212-8.082-18.212s-6.505,12.631-5.348,24.447C101.809,412.499,105.117,420.841,110.942,428.331z"/>
				<path style="fill:#9DC1B4;" d="M129.824,456.375c0,0-10.956-10.934-24.622-11.559c-17.563-0.806-28.684,6.391-28.684,6.391      s5.479,7.215,21.112,10.934C111.115,465.353,129.824,456.375,129.824,456.375z"/>
				<path style="fill:#9DC1B4;" d="M143.158,469.693c0,0-6.484-9.288-17.261-5.248c-11.935,5.493-18.224,13.334-18.224,13.334      s11.54,6.736,23.743,3.587C143.232,478.32,143.158,469.693,143.158,469.693z"/>
				<path style="fill:#9DC1B4;" d="M117.161,438.849c0,0-11.138-11.295-15.481-14.411c-9.381-6.733-19.861-4.867-19.861-4.867      S84.653,430.774,93.9,436.2C103.145,441.622,117.161,438.849,117.161,438.849z"/>
			</g>
			<path style="fill:#8AB7A8;" d="M162.276,483.642c0,0-12.217-12.26-13.597-26.424c-1.374-14.164,9.014-25.356,9.014-25.356     s11.035,10.082,11.953,24.995C170.319,467.772,162.276,483.642,162.276,483.642z"/>
		</g>
		<g>
			<path style="fill:#9DC1B4;" d="M233.86,654.37c-3.841-1.325-7.809-2.659-11.961-4.054c-3.286-1.103-6.671-2.24-10.174-3.434     c-22.805-7.776-40.63-25.379-53.645-38.232l-0.468-0.462c-5.073-5.007-6.824-7.461-14.192-17.79     c-1.647-2.309-3.57-5.004-5.867-8.202c-6.173-8.589-12.662-16.082-18.271-21.099c-11.108-9.939-22.206-16.581-22.317-16.648     l-1.549,2.604c0.108,0.064,10.966,6.567,21.846,16.3c5.45,4.876,11.782,12.195,17.831,20.61c2.296,3.194,4.216,5.886,5.861,8.192     c7.307,10.243,9.271,12.996,14.53,18.188l0.468,0.462c13.223,13.059,31.333,30.943,54.796,38.943     c3.507,1.196,6.896,2.334,10.187,3.439c4.275,1.436,8.352,2.807,12.296,4.17C233.176,656.335,233.401,655.289,233.86,654.37z"/>
			<g>
				<path style="fill:#9DC1B4;" d="M163.794,616.338c0,0-10.744-5.971-24.962-3.371c-9.778,2.193-21.395,12.868-21.395,12.868      s16.344,6.266,25.788,2.789C156.483,623.74,163.794,616.338,163.794,616.338z"/>
				<path style="fill:#9DC1B4;" d="M208.636,646.984c0,0-10.636-10.218-13.492-19.486c-3.678-11.936,2.936-25.365,2.936-25.365      s10.461,6.982,13.933,20.476C215.102,634.619,208.636,646.984,208.636,646.984z"/>
				<path style="fill:#9DC1B4;" d="M151.184,603.232c0,0,12.309-10.046,14.661-16.604c3.792-10.575,0.747-23.106,0.747-23.106      s-13.231,5.894-16.771,17.317C146.278,592.257,151.184,603.232,151.184,603.232z"/>
				<path style="fill:#9DC1B4;" d="M125.753,569.268c0,0,7.871-8.969,10.198-21.601c2.739-14.871-2.414-25.509-2.414-25.509      s-9.56,6.53-12.148,24.216C119.639,558.326,125.753,569.268,125.753,569.268z"/>
				<path style="fill:#9DC1B4;" d="M133.211,577.882c0,0-14.304-6.457-34.552-1.972c-18.349,4.061-34.213,21.661-34.213,21.661      s19.867,6.358,36.259,0.406C123.417,589.732,133.211,577.882,133.211,577.882z"/>
			</g>
			<g>
				<path style="fill:#FE9F9F;" d="M99.082,540.495c2.145-8.164,2.41-22.52-2.892-33.78c-5.041-10.707-11.913-13.759-19.522-11.295      c-9.307,3.014-6.678,19.4-6.678,19.4s-9.735-16.239-18.752-10.077c-9.833,6.719,3.067,21.381,3.067,21.381      s-21.138-5.481-22.608,6.484c-1.468,11.962,14.108,14.283,14.108,14.283s-8.657,6.945-2.169,15.023      c6.488,8.078,20.986,7.027,34.565,1.236C88.37,558.814,96.586,549.995,99.082,540.495z"/>
				<path style="fill:#FFFFFF;" d="M58.276,568.802c-6.247,0-11.858-1.744-15.46-6.229c-3.698-4.604-2.841-8.884-1.472-11.664      c0.699-1.419,1.594-2.583,2.34-3.413c-4.344-1.149-14.271-4.903-13.03-15.016c0.332-2.704,1.595-4.82,3.754-6.288      c4.819-3.28,12.97-2.446,17.292-1.687c-2.273-3.146-5.781-8.964-5.128-14.169c0.335-2.668,1.706-4.842,4.074-6.46      c2.108-1.443,4.417-1.901,6.865-1.364c4.599,1.007,8.681,5.358,11.095,8.479c-0.173-5.313,0.643-14.272,7.741-16.571      c6.023-1.953,14.522-1.481,20.797,11.847c5.301,11.259,5.249,25.774,2.957,34.494c-2.55,9.71-10.984,18.878-21.486,23.356      C72.214,566.847,64.889,568.802,58.276,568.802z M44.228,525.92c-3.14,0-6.382,0.473-8.64,2.011      c-1.658,1.128-2.589,2.701-2.847,4.806c-1.325,10.796,12.626,13.025,13.22,13.114l2.363,0.356l-1.859,1.503      c-0.319,0.258-7.75,6.398-2.009,13.546c5.503,6.852,18.587,7.216,33.333,0.926c9.926-4.233,17.885-12.851,20.276-21.955      c2.199-8.365,2.252-22.28-2.826-33.065c-4.513-9.587-10.65-13.203-18.246-10.742c-8.354,2.705-5.989,18.078-5.964,18.233      l0.862,5.373l-2.802-4.665c-0.057-0.094-5.718-9.415-12.032-10.795c-1.883-0.411-3.592-0.069-5.225,1.045      c-1.875,1.283-2.914,2.913-3.174,4.987c-0.816,6.503,6.364,14.749,6.437,14.832l2.261,2.569l-3.314-0.857      C53.964,527.122,49.227,525.92,44.228,525.92z"/>
				<path style="fill:#9DC1B4;" d="M101.248,547.81c5.984-10.595,5.193-30.745-3.536-30.379c-5.109,0.212-4.383,13.135-4.383,13.135      s-5.836-15.436-10.842-13.772c-6.969,2.318,2.95,14.399,2.95,14.399s-10.217-9.116-15.762-4.029      c-6.423,5.893,9.358,14.968,9.441,14.421c0,0-14.718,4.006-15.511,9.912c-0.936,6.945,16.843,3.033,16.843,3.033      s-15.507,7.95-10.45,14.48c2.169,2.799,10.861-0.284,18.14-5.883C94.265,558.41,99.083,551.638,101.248,547.81z"/>
			</g>
		</g>
	</g>
	<g>
		<g>
			<g>
				<g>
					<path style="fill:#765353;" d="M235.655,348.87c0.351,0.032,0.607-0.247,0.619-0.577c0.013-0.331-0.246-0.611-0.577-0.623       c-0.285-0.002-6.929-0.13-12.679,11.365c-0.148,0.297-0.028,0.657,0.269,0.806c0.086,0.043,0.178,0.063,0.268,0.063       c0.221,0,0.432-0.121,0.538-0.332C229.458,348.844,235.6,348.848,235.655,348.87z"/>
					<path style="fill:#765353;" d="M238.681,344.022c-0.318-0.093-0.651,0.09-0.744,0.409c-0.008,0.029-0.889,3.027-2.72,7.534       c-1.814,4.464-3.884,7.359-3.905,7.388c-0.194,0.269-0.133,0.645,0.136,0.838c0.134,0.097,0.294,0.13,0.445,0.106       c0.152-0.024,0.295-0.107,0.393-0.242c0.088-0.121,2.171-3.032,4.043-7.638c1.857-4.57,2.752-7.62,2.761-7.651       C239.182,344.449,239,344.115,238.681,344.022z"/>
				</g>
				<path style="fill:#916B6B;" d="M196.902,183.548c0,0-4.103,4.517-11.605,18.919c-4.206,8.075-9.174,22.007-9.634,43.124      c-0.724,33.222,11.492,68.442,37.882,90.73c17.309,14.618,26.628,16.469,26.628,16.469s19.427,1.485,41.231-0.659      c20.693-2.035,28.765-32.574,41.598-55.856c6.485-11.766,14.382-38.555,22.653-50.272c2.558-3.624,6.731-14.225,3.392-25.438      c-5.462-18.341-14.303-31.29-25.707-39.948c-14.829-11.256-40.283-23.868-57.333-23.142      c-17.051,0.725-25.719,6.267-25.719,6.267s8.487-15.451,1.527-29.514c-5.11-10.324-19.675-20.655-29.83-21.152      c-6.523-0.318-9.409-0.014-14.81,3.317c-5.402,3.33-6.525,9.415-6.525,9.415s-9.133,1.451-15.198,6.673      c-7.871,6.776-9.002,17.722-7.222,25.353c1.778,7.632,1.145,12.699,8.884,19.362      C184.853,183.861,196.902,183.548,196.902,183.548z"/>
				<g>
					<path style="fill:#765353;" d="M239.696,164.247c-0.032,0-0.065-0.003-0.097-0.008c-0.327-0.053-0.549-0.361-0.497-0.689       c0.02-0.122,1.836-12.369-10.045-23.481c-16.945-15.851-37.914-14.157-38.126-14.141c-0.332,0.03-0.622-0.214-0.653-0.544       c-0.03-0.33,0.213-0.622,0.544-0.652c0.216-0.02,21.704-1.771,39.055,14.459c12.371,11.571,10.496,24.027,10.41,24.551       C240.239,164.037,239.985,164.247,239.696,164.247z"/>
					<path style="fill:#765353;" d="M214.368,185.313c-0.161,0-0.32-0.005-0.477-0.014c-5.705-0.337-8.201-2.428-9.539-7.994       c-1.497-6.228-1.464-15.125,7.201-22.137c15.209-12.307,25.46-5.701,25.889-5.413c0.275,0.185,0.348,0.556,0.165,0.832       c-0.184,0.276-0.557,0.35-0.832,0.167c-0.098-0.065-9.981-6.373-24.466,5.348c-8.178,6.618-8.205,15.031-6.788,20.923       c1.214,5.051,3.266,6.77,8.441,7.075c4.806,0.259,12.155-4.601,12.229-4.65c0.274-0.186,0.648-0.111,0.833,0.164       c0.185,0.276,0.111,0.649-0.164,0.834C226.556,180.651,219.553,185.312,214.368,185.313z"/>
					<path style="fill:#765353;" d="M209.128,188.721c-5.033,0-9.292-1.533-11.531-4.188c-2.449-2.903-2.171-7.196-0.928-13.182       c1.314-6.332,5.553-15.354,13.179-19.94c17.057-10.256,27.631-1.891,27.736-1.806c0.256,0.21,0.294,0.587,0.085,0.844       c-0.209,0.256-0.588,0.295-0.844,0.087c-0.097-0.079-10.061-7.895-26.357,1.905c-7.294,4.386-11.358,13.059-12.622,19.154       c-1.17,5.633-1.466,9.632,0.67,12.163c2.161,2.562,6.514,3.954,11.655,3.738c10.822-0.466,15.607-7.427,15.654-7.497       c0.185-0.276,0.557-0.348,0.833-0.165c0.275,0.185,0.35,0.558,0.165,0.833c-0.207,0.307-5.177,7.536-16.601,8.028       C209.854,188.712,209.489,188.721,209.128,188.721z"/>
					<path style="fill:#765353;" d="M196.783,183.634c-0.028,0-0.057-0.002-0.086-0.006c-0.168-0.024-16.832-2.54-16.682-14.505       c0.057-4.605,1.566-11.489,4.25-15.173c4.267-5.852,11.855-10.593,19.331-12.078c9.184-1.827,20.27-0.229,26.037,2.2       c4.455,1.876,7.539,5.437,7.668,5.587c0.216,0.251,0.187,0.631-0.064,0.846c-0.251,0.217-0.631,0.188-0.847-0.065       c-0.03-0.035-3.037-3.499-7.223-5.262c-5.683-2.393-16.714-3.843-25.337-2.13c-7.197,1.43-14.496,5.987-18.595,11.608       c-2.538,3.484-3.965,10.061-4.02,14.481c-0.137,10.91,15.494,13.278,15.651,13.3c0.328,0.047,0.557,0.351,0.51,0.68       C197.334,183.418,197.078,183.634,196.783,183.634z"/>
					<path style="fill:#765353;" d="M178.866,179.481c-0.141,0-0.282-0.049-0.396-0.148c-0.298-0.262-7.262-6.556-3.279-20.618       c2.127-7.513,5.654-10.069,9.064-12.542l0.526-0.382c4.77-3.479,13.587-6.959,22.453-6.935       c20.868,0.089,28.104,7.466,28.402,7.78c0.227,0.24,0.217,0.619-0.022,0.847c-0.24,0.228-0.621,0.22-0.848-0.019       c-0.071-0.073-7.25-7.32-27.536-7.407c-0.043,0-0.089,0-0.132,0c-8.53,0-17.17,3.467-21.609,6.704l-0.529,0.384       c-3.394,2.46-6.6,4.785-8.614,11.897c-3.777,13.339,2.847,19.328,2.915,19.386c0.25,0.219,0.275,0.598,0.057,0.848       C179.199,179.411,179.033,179.481,178.866,179.481z"/>
				</g>
			</g>
			<g>
				<path style="fill:#FEDFC5;" d="M238.799,339.652c0,0,0.684,20.857-9.102,32.673c-4.488,5.418-24.303,12.314-30.596,16.348      c-4.695,2.271,22.503,50.493,55.316,52.181c29.873,1.534,46.505-49.921,46.505-49.921s-12.005-7.454-17.51-11.619      c-5.947-4.499-3.104-23.376-3.104-23.376L238.799,339.652z"/>
				<path style="fill:#EDC4A9;" d="M237.096,355.847c2.83,3.296,13.399,12.978,25.502,16.205c10.978,2.927,17.061-4.334,17.04-5.485      c-0.098-5.53,0.669-10.629,0.669-10.629l-41.509-16.286C238.799,339.652,239.043,347.236,237.096,355.847z"/>
			</g>
			<g>
				<path style="fill:#FEDFC5;" d="M317.745,203.223c10.553,6.47,19.796,12.452,22.019,35.105c0.576,5.868-1.451,27.122-5.968,42.76      c-2.316,8.017-0.457,21.428-7.26,37.978c-6.643,16.161-18.084,25.638-28.965,32.992c-10.95,7.402-21.492,10.871-33.026,9.881      c-8.863-0.761-27.472-9.713-41.092-23.91c-16.632-17.337-23.827-39.494-23.827-39.494s-9.185,0.875-15.78-5.042      c-8.094-7.262-10.887-15.27-9.084-23.724c2.856-13.06,16.661-13.566,16.661-13.566s1.494-18.55,10.921-31.718      c13.463-18.806,44.195-29.821,62.677-30.851C292.234,192.118,307.192,196.752,317.745,203.223z"/>
				<g>
					<path style="fill:#E8C58E;" d="M199.188,284.127c-0.048-0.184-1.219-4.561-5.103-8.746c-5.551-5.983-12.185-4.156-12.466-4.076       c0,0-0.637,0.199-0.541,0.71c0.122,0.645,0.873,0.444,0.873,0.444c0.253-0.07,6.219-1.687,11.253,3.739       c0.112,0.121,0.214,0.242,0.322,0.364c-1.765-0.264-4.656-0.309-6.973,1.544c0,0-0.577,0.434-0.321,0.876       c0.337,0.584,1.071,0.062,1.071,0.062c2.95-2.36,7.245-1.05,7.433-0.992c2.459,3.318,3.28,6.342,3.289,6.378       c0,0,0.146,0.598,0.728,0.425C199.359,284.676,199.188,284.127,199.188,284.127z"/>
					<path style="fill:#F68685;" d="M289.627,328.783c0,0-5.834,8.448-12.11,7.88c-6.626-0.6-13.234-10.175-13.234-10.175       s6.35,6.52,13.372,6.721C283.294,333.369,289.627,328.783,289.627,328.783z"/>
					<path style="fill:#EDC4A9;" d="M282.749,298.252c0,0,5.451,9.282,5.098,10.528c-1.106,3.908-7.876,8.37-7.876,8.37       s2.832-5.804,3.016-9.726C283.225,302.379,282.749,298.252,282.749,298.252z"/>
					<g>
						<path style="fill:#F4C4A4;" d="M233.809,317.912c6.31-0.902,9.515-5.782,7.735-11.496c-2.274-7.297-11.877-9.802-17.193-5.7        c-3.533,2.727-4.378,5.664-3.385,10.02C221.958,315.091,227.436,318.823,233.809,317.912z"/>
						<path style="fill:#F4C4A4;" d="M317.078,314.682c-4.303-1.645-5.743-6.481-3.523-11.419        c2.835-6.305,11.475-6.466,14.536-2.055c2.034,2.931,1.822,5.895,0.406,8.813        C326.448,314.242,321.423,316.342,317.078,314.682z"/>
					</g>
					<g>
						<path style="fill:#917373;" d="M262.603,282.16c-0.236-0.314-0.638-0.425-1.003-0.277c-1.398,0.567-8.62,3.341-13.577,3.327        c-3.964-0.051-7.774-1.29-10.295-2.109c-2.344-0.763-3.314-1.079-3.79-0.403c-0.148,0.211-0.197,0.472-0.137,0.735        c0.115,0.506,0.622,1.121,2.377,2.244l-3.112,4.054c-0.288,0.375-0.218,0.913,0.158,1.2c0.156,0.119,0.338,0.177,0.521,0.177        c0.257,0,0.511-0.115,0.679-0.335l3.228-4.204c0.287,0.166,0.588,0.339,0.919,0.523c2.301,1.284,4.872,2.057,7.602,2.319        l0.264,4.714c0.026,0.456,0.404,0.808,0.855,0.808c0.521-0.028,0.882-0.432,0.856-0.904l-0.253-4.521        c0.12,0.002,0.239,0.011,0.36,0.011c1.154,0,2.333-0.089,3.525-0.269c1.704-0.256,3.244-0.785,4.628-1.428l1.981,3.615        c0.156,0.284,0.449,0.445,0.752,0.445c0.139,0,0.28-0.034,0.411-0.105c0.415-0.227,0.567-0.748,0.339-1.162l-1.962-3.581        c2.202-1.281,3.831-2.799,4.664-3.851C262.829,282.879,262.835,282.468,262.603,282.16z"/>
						<path style="fill:#917373;" d="M325.049,286.215l-2.694-2.555c0.893-0.961,1.571-1.975,1.127-2.529        c-0.397-0.495-0.93-0.24-2.512,0.519c-2.008,0.963-5.367,2.575-8.957,2.922c-2.353,0.226-4.829-0.001-6.628-0.608        c-1.141-0.385-2.152-0.892-2.964-1.299c-1.32-0.661-2.117-1.059-2.681-0.544c-0.11,0.102-0.35,0.39-0.198,0.886        c0.311,1.016,2.412,2.898,5.093,4.272l-1.238,3.896c-0.143,0.45,0.106,0.932,0.557,1.075c0.086,0.027,0.173,0.04,0.259,0.04        c0.363,0,0.7-0.232,0.816-0.597l1.177-3.702c0.984,0.389,2.008,0.693,3.027,0.843c0.567,0.056,1.127,0.084,1.68,0.084        c1.047,0,2.062-0.113,3.047-0.311l1.028,4.848c0.086,0.402,0.441,0.678,0.836,0.678c0.059,0,0.119-0.006,0.179-0.018        c0.462-0.098,0.758-0.553,0.66-1.016l-1.044-4.925c1.597-0.527,3.086-1.326,4.424-2.4c0.255-0.204,0.649-0.529,1.083-0.918        l2.744,2.602c0.165,0.157,0.377,0.235,0.589,0.235c0.226,0,0.453-0.09,0.621-0.267        C325.406,287.083,325.392,286.541,325.049,286.215z"/>
					</g>
					<g>
						<path style="fill:#765353;" d="M258.856,257.687c-3.726-1.251-7.679-2.184-13.449-1.534c-5.771,0.65-9.91,2.738-13.441,5.528        c-2.041,1.612-3.302,3.556-3.302,3.556s8.336-4.563,17.216-5.294c9.256-0.762,17.162,1.077,17.162,1.077        S261.838,258.688,258.856,257.687z"/>
						<path style="fill:#765353;" d="M323.174,259.118c-1.536-0.942-4.654-3.001-8.797-3.461c-5.511-0.613-8.607-0.123-12.189,1.003        c-2.865,0.901-4.054,3.061-4.054,3.061s5.498-0.859,14.334-0.05c8.477,0.776,15.406,4.684,15.406,4.684        S325.172,260.342,323.174,259.118z"/>
					</g>
				</g>
			</g>
		</g>
		<g>
			<path style="fill:#916B6B;" d="M330.97,195.096c6.793,4.208,21.257,23.083,24.17,30.35c3.583,8.938,7.442,17.874,3.028,36.368     c-2.945,12.341-12.652,20.919-12.652,20.919s1.015-4.891,1.116-6.741c0.25-4.599,0.289-6.427,0.289-6.427     s-1.073,4.862-3.726,9.378c-2.215,3.77-7.056,8.949-7.056,8.949s1.725-16.186,1.526-23.976     c-0.253-9.857-1.879-16.222-1.879-16.222s-1.259,7.24-4.429,12.461c-3.903,6.428-9.008,10.21-9.008,10.21     s-1.351-14.864-2.252-23.272c-0.739-6.897-2.485-16.654-2.485-16.654s-0.539,10.411-5.698,21.834     c-1.804,3.996-7.507,11.636-7.507,11.636s-3.452-14.577-4.333-20.553c-0.883-5.977-2.522-13.39-2.522-13.39     s-3.494,11.492-5.74,17.137c-4.086,10.271-11.242,17.944-11.242,17.944s-6.233-6.679-9.86-20.748     c-1.65-6.404-3.024-17.503-3.024-17.503s-3.688,11.326-6.429,18.951c-1.314,3.655-8.552,21.295-10.073,21.464     c-0.901,0.1-6.455-13.396-9.148-25.352c-0.73-3.241-3.25-15.677-3.25-15.677s-5.609,17.994-6.587,21.147     c-0.978,3.153-6.738,23.702-6.604,25.064c0.133,1.361-6.281-13.741-7.598-20.831c-2.149-10.529-0.944-21.587-0.944-21.587     s-3.246,9.522-6.094,18.014c-3.322,9.902-4.617,17.111-5.276,25.158c-0.572,6.983-0.076,12.807-0.076,12.807     s-12.494-15.281-14.469-31.756c-2.003-22.377,4.944-40.224,18.353-52.898c10.431-9.859,32.172-21.607,66.522-20.63     C301.61,181.398,313.515,184.283,330.97,195.096z"/>
			<g>
				<path style="fill:#765353;" d="M299.007,208.682c-0.335,0.003-0.605,0.278-0.602,0.613c0.001,0.109,0.077,10.973-2.035,20.661      c-4.6,21.104-15.912,33.975-16.026,34.103c-0.223,0.25-0.201,0.634,0.049,0.857c0.116,0.103,0.26,0.154,0.404,0.154      c0.167,0,0.333-0.068,0.453-0.203c0.116-0.129,11.634-13.22,16.305-34.652c2.14-9.82,2.064-20.82,2.063-20.93      C299.616,208.948,299.32,208.697,299.007,208.682z"/>
				<path style="fill:#765353;" d="M268.964,215.48c-0.333-0.042-0.638,0.187-0.684,0.519c-0.017,0.122-1.7,12.27-3.172,17.295      c-6.048,20.644-14.048,32.976-14.128,33.098c-0.183,0.28-0.106,0.657,0.175,0.841c0.102,0.067,0.218,0.1,0.333,0.1      c0.198,0,0.392-0.096,0.508-0.274c0.081-0.124,8.176-12.591,14.278-33.422c1.497-5.111,3.141-16.969,3.211-17.472      C269.529,215.832,269.297,215.526,268.964,215.48z"/>
				<path style="fill:#765353;" d="M218.61,226.172c-0.316-0.109-0.663,0.057-0.773,0.373c-0.061,0.174-6.09,17.497-9.113,26.881      c-5.747,17.847-3.422,31.987-3.398,32.128c0.051,0.296,0.308,0.505,0.598,0.505c0.034,0,0.068-0.003,0.103-0.009      c0.331-0.057,0.553-0.371,0.496-0.701c-0.023-0.138-2.301-13.984,3.357-31.551c3.018-9.37,9.042-26.679,9.103-26.853      C219.094,226.628,218.927,226.282,218.61,226.172z"/>
				<path style="fill:#765353;" d="M336.878,241.018c-0.324-0.037-0.633,0.2-0.673,0.533c-0.009,0.073-0.873,7.325-3.002,12.283      c-4.189,9.758-10.877,15.582-10.944,15.64c-0.254,0.219-0.283,0.602-0.065,0.857c0.121,0.139,0.29,0.211,0.461,0.211      c0.14,0,0.28-0.048,0.395-0.147c0.282-0.243,6.964-6.053,11.269-16.082c2.197-5.12,3.056-12.318,3.091-12.622      C337.45,241.358,337.211,241.056,336.878,241.018z"/>
			</g>
		</g>
		<g>
			<g>
				<defs>
					<path id="SVGID_1_" d="M336.473,654.485c0,0,85.654,18.121,145.099-42.889c34.233-35.134,44.5-53.555,55.644-77.169       c15.21-32.23,25.954-56.208,15.113-108.981c-10.168-49.496-34.766-96.99-96.909-120.698       c-21.042-8.028-49.423-6.802-78.006-25.308c-33.988-22.006-79.491-43.432-139.229-30.524       c-30.432,6.576-101.007,37.69-132.077,120.747c-13.153,35.16-36.28,47.773-53.003,96.46       c-10.003,29.123-8.733,69.913,10.56,107.223c9.323,18.03,27.164,35.144,48.255,51.355c28.082,21.585,62.717,33.97,107.3,34.343       c24.267,0.203,30.406-0.715,53.251-2.286C296.455,655.109,336.473,654.485,336.473,654.485z"/>
				</defs>
				<clipPath id="SVGID_00000155858978859648869580000003964090887312569992_">
					<use xlink:href="#SVGID_1_" style="overflow:visible;"/>
				</clipPath>
				<path style="clip-path:url(#SVGID_00000155858978859648869580000003964090887312569992_);fill:#FE9F9F;" d="M141.405,672.985      c0,0,7.942-16.09,18.139-32.86c4.752-7.815,18.24-28.117,21.819-35.751c23.659-50.472,2.629-89.115,2.629-89.115l126.181-15.247      c11.567,7.886,68.348,50.473,69.925,86.75c1.577,36.277,27.865,80.966,1.052,90.43c-26.814,9.464-91.481,32.597-171.396,20.505      C151.216,688.838,141.405,672.985,141.405,672.985L141.405,672.985z"/>
			</g>
			<path style="fill:#FE9F9F;" d="M207.266,382.015c0,0-11.01,5.473-14.62,7.464c-6.662,3.675-19.138,11.605-25.818,16.136     c-6.682,4.531-17.624,12.584-26.141,27.109c-11.922,20.328-1.367,70.545,1.788,83.612c3.155,13.066,26.995,97.75,54.777,110.562     c5.703,2.63,18.32,1.718,29.27,0.432c20.904-2.456,42.086-8.378,42.086-8.378s21.096-7.094,28.065-10.018     c5.503-2.309,22.806-11.296,22.806-11.296s2.969,6.52,23.144,10.328c13.13,2.477,53.53,3.953,58.522-16.136     c4.196-21.3-2.2-43.121-16.475-92.838c-9.451-32.918-16.286-50.436-21.392-62.071c-9.252-21.085-32.071-31.855-39.265-36.253     c-7.611-4.653-28.97-14.762-28.97-14.762s0.801,21.675-9.773,31.544c-6.67,7.961-27.19,9.129-40.233,3.658     C223.985,412.277,209.585,385.912,207.266,382.015z"/>
		</g>
		<g>
			<g>
				<path style="fill:#D3F4DE;" d="M346.238,442.638c-0.726-0.016-17.831,0.091-32.084-9.59      c-9.148-6.214-12.425-19.525-12.425-19.525s-2.259-22.107-2.474-26.625c-0.215-4.518-0.807-27.755,10.381-38.082      c5.34-4.929,33.072-13.021,49.216-1.291c22.43,16.298,20.625,50.141,16.352,64.761      C367.027,440.255,346.238,442.638,346.238,442.638z"/>
				<g>
					<path style="fill:#FEDFC5;" d="M347.206,433.667c0,0-0.557,9.423-1.181,11.528c-0.84,2.828-2.761,6.142-5.813,8.132       c-2.856,1.862-8.774,9.211-8.774,9.211s12.798,10.132,34.571,5.897c16.288-3.167,21.422-13.094,21.422-13.094       s-5.811-5.259-8.923-6.487c-3.501-1.38-7.68-4.477-10.299-7.277c-2.96-3.164-6.362-12.568-6.362-12.568L347.206,433.667z"/>
					<path style="fill:#FEDFC5;" d="M379.937,322.567c-34.431-13.289-73.959,8.418-77.563,38.431       c0.006,0.762-0.443,3.639-0.484,4.357c-0.484,8.391,1.808,17.297,1.502,22.311c-0.321,5.26-9.087,13.766-1.44,30.909       c5.177,11.604,18.487,21.134,49.984,22.282c5.511,0.2,19.568-2.199,34.832-11.682c26.291-16.878,30.767-50.494,25.012-71.969       C404.679,334.185,389.516,327.442,379.937,322.567z"/>
				</g>
				<g>
					<path style="fill:#F68685;" d="M314.355,413.846c0,0,1.881,3.236,5.65,3.518c4.104,0.307,7.461-2.63,7.461-2.63       s-4.841,1.13-7.302,0.968C316.353,415.451,314.355,413.846,314.355,413.846z"/>
					<g>
						<path style="fill:#FFCFBF;" d="M311.087,400.629c-0.348-4.128-3.236-5.264-5.375-5.379c-3.259-0.175-5.689,3.074-5.424,5.935        c0.265,2.863,1.824,4.672,4.31,5.118C307.827,406.884,311.418,404.551,311.087,400.629z"/>
						<path style="fill:#FFCFBF;" d="M339.495,406.286c1.285-4.473,4.971-5.074,7.548-4.717c3.927,0.544,6.143,4.674,5.224,7.77        c-0.919,3.097-3.323,4.527-6.356,4.808C342.03,414.506,338.274,410.536,339.495,406.286z"/>
					</g>
					<path style="fill:#D8AE98;" d="M319.616,401.422c-0.716,0.608-2.769,1.769-3.05,3.216c-0.473,2.438,1.414,4.346,1.414,4.346       s-0.428-2.602-0.062-4.067C318.268,403.52,319.616,401.422,319.616,401.422z"/>
					<g>
						<g>
							<path style="fill:#917373;" d="M333.665,395.543c-0.632-0.123,0.894-5.237,6.565-6.144c4.003-0.64,7.891,1.998,9.398,4.188         c1.27,1.848,1.84,4.191,2.011,5.254c0.09,0.561-0.115,1.751-0.727,0.744c-0.619-1.018-1.062-1.696-2.07-2.937         c-1.499-1.843-3.349-2.937-5.233-3.509c-2.853-0.866-5.119-0.671-7.533,0.666         C334.574,394.638,333.885,395.586,333.665,395.543z"/>
							<path style="fill:#917373;" d="M338.227,387.97c-0.092-0.313-0.424-0.488-0.731-0.394c-0.311,0.093-0.488,0.42-0.394,0.732         l0.757,2.522c0.076,0.255,0.31,0.419,0.563,0.419c0.056,0,0.113-0.008,0.169-0.025c0.311-0.093,0.488-0.42,0.394-0.732         L338.227,387.97z"/>
							<path style="fill:#917373;" d="M347.24,388.013c-0.277-0.168-0.638-0.085-0.81,0.192l-1.6,2.591         c-0.17,0.277-0.085,0.639,0.192,0.81c0.096,0.059,0.203,0.087,0.309,0.087c0.196,0,0.389-0.099,0.501-0.279l1.6-2.591         C347.602,388.545,347.517,388.184,347.24,388.013z"/>
							<path style="fill:#917373;" d="M352.811,393.74c-0.158-0.285-0.517-0.383-0.799-0.227l-2.38,1.326         c-0.284,0.157-0.386,0.516-0.227,0.799c0.107,0.193,0.308,0.302,0.513,0.302c0.097,0,0.195-0.024,0.286-0.074l2.38-1.327         C352.867,394.382,352.969,394.024,352.811,393.74z"/>
						</g>
						<g>
							<path style="fill:#917373;" d="M317.137,392.703c0.485,0.067-0.196-4.88-2.918-6.889c-2.467-1.84-6.196-0.455-7.896,0.967         c-1.434,1.2-2.512,3.001-2.939,3.841c-0.225,0.444-0.517,1.44,0.339,0.966c1.009-0.56,1.672-1.232,2.746-1.996         c1.596-1.134,2.765-1.596,4.272-1.567c2.281,0.044,3.501,0.885,4.904,2.558C316.525,391.631,316.968,392.681,317.137,392.703         z"/>
							<path style="fill:#917373;" d="M305.555,389.271c-0.111-0.005-0.222-0.04-0.318-0.11l-2.177-1.566         c-0.264-0.189-0.324-0.557-0.134-0.821c0.19-0.264,0.558-0.324,0.821-0.134l2.177,1.566c0.264,0.189,0.324,0.557,0.134,0.821         C305.938,389.194,305.746,389.279,305.555,389.271z"/>
							<path style="fill:#917373;" d="M309.101,386.887c-0.239-0.01-0.458-0.167-0.535-0.408l-0.841-2.619         c-0.099-0.309,0.071-0.641,0.38-0.739c0.309-0.103,0.64,0.07,0.74,0.38l0.841,2.618c0.099,0.309-0.071,0.641-0.38,0.739         C309.237,386.881,309.169,386.89,309.101,386.887z"/>
							<path style="fill:#917373;" d="M313.001,387.455c-0.077-0.003-0.155-0.022-0.23-0.058c-0.293-0.14-0.416-0.491-0.275-0.784         l1.164-2.421c0.141-0.293,0.492-0.42,0.785-0.275c0.293,0.14,0.416,0.491,0.276,0.784l-1.164,2.421         C313.451,387.341,313.228,387.465,313.001,387.455z"/>
						</g>
					</g>
					<g>
						<path style="fill:#AF8B8B;" d="M318.833,376.248c0,0-3.138-3.482-8.861-2.273c-3.308,0.699-5.702,3.98-5.702,3.98        s1.325-0.877,5.804-1.898C314.596,375.028,318.833,376.248,318.833,376.248z"/>
						<path style="fill:#AF8B8B;" d="M335.989,378.45c0,0,6.193-2.74,12.253-0.467c6.116,2.294,7.788,7.118,7.788,7.118        s-4.399-3.648-8.191-4.939C342.072,378.198,335.989,378.45,335.989,378.45z"/>
					</g>
				</g>
				<g>
					<path style="fill:#FFFAE9;" d="M371.937,356.875c-6.755-9.8-15.209-16.045-29.31-17.958       c-3.351-0.455-26.312,1.204-36.058,13.556c-4.625,5.863-7.443,16.007-7.423,22.376c0.01,3,1.183,11.941,1.183,11.941       s3.31-1.097,4.303-2.259c0.683-0.8,0.968-2.501,0.108-3.738c-0.332-0.478-0.726-0.834-1.506-1.237       c0.619-0.309,1.479-1.156,2.071-2.098c1.255-1.997,1.614-4.438,0-6.589c-0.518-0.691-0.995-1.156-1.721-1.372       c0.82-0.336,1.897-0.919,3.106-2.205c2.286-2.431,0.847-6.75,0.847-6.75s1.515,1.596,5.231,0.345       c4.216-1.42,2.921-10.003,2.921-10.003s0.937,6.608,5.039,6.255c4.229-0.363,4.78-7.632,4.78-7.632       c0.095,3.681,2.978,5.866,4.778,5.725c3.148-0.247,4.832-6.398,4.832-6.398s-0.395,5.642,2.85,6.582       c3.695,1.07,5.562-3.216,6.012-4.432c-0.399,1.213-1.57,5.62,1.877,7.174c3.942,1.776,7.037-2.122,7.374-2.569       c-0.315,0.432-2.692,3.939,0.332,7.363c2.229,2.521,7.767-0.236,7.767-0.236s-5.613,4.339-2.505,8.665       c2.832,3.943,8.806,1.609,8.806,1.609s-4.485,3.78-4.046,7.158c0.595,4.587,6.926,3.788,6.926,3.788s-5.766,2.265-5.08,6.689       c0.544,3.506,5.981,3.725,5.981,3.725s-3.926,2.162-3.246,6.308c0.713,4.348,6.271,4.168,6.271,4.168s5.099-9.59,5.249-19.579       C379.864,373.275,376.031,362.813,371.937,356.875z"/>
					<g>
						<path style="fill:#D3F4DE;" d="M374.167,309.838l-1.03-8.038c0,0,4.182-3.588,7.645-3.062        c3.462,0.527,5.323,4.553,5.323,4.553s1.153-3.242,5.276-2.307c4.122,0.934,3.852,4.792,3.852,4.792s3.359-3.734,8.16-0.604        c3.882,2.531,2.822,6.927,2.822,6.927s3.442-0.845,5.886,2.139c2.652,3.239,0.652,6.436,0.652,6.436s4.297-1.036,6.08,1.513        c2.467,3.526-0.216,6.25-0.216,6.25s4.686-1.453,6.747,2.136c2.061,3.589-1.259,6.421-1.259,6.421s3.984,0.832,5.057,3.862        c1.846,5.214-0.371,8.005-0.371,8.005l-7.774-0.701c0,0-10.943-17.707-25.5-27.862        C383.282,311.764,374.167,309.838,374.167,309.838z"/>
						<path style="fill:#D3F4DE;" d="M338.116,441.062c-3.2-0.888-6.8-2.589-6.8-2.589s7.109,1.136,16.347-2.414        c9.062-3.482,14.899-10.327,18.126-16.029c8.865-14.328,9.052-33.298,5.54-46.043c-4.62-16.763-23.15-30.999-38.943-29.261        c-5.666,0.624-25.738,5.298-29.368,26.114c-0.192,3.984-0.476,8.315-0.032,11.639c0.331,2.474,0.438,4.493,0.438,4.493        s0.036,3.142-1.872,6.585c-1.289,2.327-2.216,6.162-2.216,6.162s-3.141-22.051-0.837-36.06        c4.034-24.527,16.44-35.21,35.823-47.118c7.359-4.521,25.999-9.766,37.652-9.251c7.342,0.324,10.221,1.21,15.921,3.12        c8.949,2.997,28.744,14.488,33.564,35.984c1.108,4.943,0.661,26.297-2.367,40.718c-1.408,6.708-8.734,30.873-30.551,44.321        c-16.958,10.453-35.424,11.528-42.305,11.204C344.838,442.572,340.109,441.615,338.116,441.062z"/>
					</g>
					<g>
						<path style="fill:#FFFAE9;" d="M387.1,344.136c1.938-0.127,3.617,1.402,3.749,3.415c0.132,2.013-1.332,3.748-3.27,3.875        c-1.938,0.127-3.617-1.402-3.749-3.415S385.162,344.263,387.1,344.136z"/>
						<path style="fill:#FFFAE9;" d="M407.921,352.836c1.395-0.091,2.595,0.885,2.68,2.181c0.085,1.296-0.977,2.421-2.372,2.512        c-1.395,0.092-2.595-0.885-2.68-2.181C405.464,354.052,406.526,352.927,407.921,352.836z"/>
						<path style="fill:#FFFAE9;" d="M356.268,330.73c1.777-0.116,3.314,1.261,3.433,3.077c0.119,1.816-1.224,3.382-3.001,3.498        c-1.777,0.116-3.314-1.261-3.433-3.076C353.147,332.413,354.491,330.847,356.268,330.73z"/>
						<path style="fill:#FFFAE9;" d="M313.105,338.322c1.342-0.088,2.498,0.86,2.581,2.118c0.083,1.257-0.939,2.348-2.282,2.436        c-1.343,0.088-2.499-0.86-2.581-2.117C310.741,339.501,311.762,338.41,313.105,338.322z"/>
						<path style="fill:#FFFAE9;" d="M337.904,317.883c1.411-0.092,2.626,0.922,2.715,2.266c0.088,1.344-0.984,2.508-2.395,2.601        c-1.411,0.093-2.626-0.922-2.715-2.266C335.421,319.14,336.493,317.975,337.904,317.883z"/>
						<path style="fill:#FFFAE9;" d="M373.632,316.401c1.509-0.099,2.816,1.075,2.917,2.621c0.102,1.547-1.04,2.881-2.549,2.98        c-1.51,0.099-2.816-1.075-2.917-2.621C370.981,317.834,372.123,316.5,373.632,316.401z"/>
						<path style="fill:#FFFAE9;" d="M385.852,377.365c1.316-0.086,2.454,0.916,2.541,2.239c0.087,1.323-0.91,2.465-2.226,2.551        c-1.316,0.086-2.454-0.916-2.541-2.239C383.539,378.593,384.536,377.451,385.852,377.365z"/>
						<path style="fill:#FFFAE9;" d="M374.449,424.322c1.316-0.086,2.454,0.916,2.541,2.239c0.087,1.323-0.91,2.465-2.226,2.551        c-1.316,0.086-2.454-0.916-2.541-2.238C372.136,425.55,373.133,424.408,374.449,424.322z"/>
						<path style="fill:#FFFAE9;" d="M410.553,386.763c1.052-0.086,1.948,0.686,2.001,1.723c0.054,1.037-0.755,1.946-1.807,2.032        c-1.052,0.085-1.948-0.686-2.001-1.723C408.692,387.757,409.501,386.848,410.553,386.763z"/>
						<path style="fill:#FFFAE9;" d="M393.961,404.813c0.957-0.063,1.782,0.634,1.843,1.556c0.061,0.922-0.666,1.72-1.624,1.783        c-0.957,0.063-1.783-0.634-1.843-1.556C392.277,405.674,393.003,404.876,393.961,404.813z"/>
					</g>
				</g>
			</g>
			<g>
				<path style="fill:#7CA588;" d="M258.27,443.358l-1.068,0.726c0.117,0.171,11.615,17.43,4.635,34.957      c-3.184,7.995-7.083,14.609-10.523,20.444c-4.265,7.235-7.95,13.483-8.535,19.654l1.285,0.121      c0.559-5.883,4.175-12.018,8.362-19.119c3.464-5.875,7.39-12.533,10.61-20.623C270.274,461.345,258.391,443.535,258.27,443.358z      "/>
				<g>
					<path style="fill:#FFFAE9;" d="M240.518,421.645c0.093-0.206-3.69-5.148-6.149-9.824c-3.559-6.763-3.421-11.759,0.562-13.616       c6.978-3.254,12.366,16.779,12.366,16.779s-1.119-6.815,3.063-11.666c4.174-4.839,9.456-7.108,12.343-3.503       c4.639,5.792-3.932,18.672-3.932,18.672s11.709-6.076,14.896,0.772c4.333,9.311-11.137,13.938-11.137,13.938       s16.297,5.019,11.028,14.262c-4.186,7.343-19.594-3.996-19.594-3.996s1.102,10.915-7.223,12.809       c-8.326,1.896-5.649-16.175-5.649-16.175s-17.249,10.773-21.262,2.424c-4.197-8.731,15.951-12.477,15.951-12.477       s-18.753-2.943-14.138-12.776C225.662,408.702,240.518,421.645,240.518,421.645z"/>
					<path style="fill:#F4C4A4;" d="M249.401,423.709c4.091,0.312,7.165,3.737,6.867,7.652c-0.298,3.914-3.856,6.835-7.947,6.523       c-4.091-0.312-7.165-3.737-6.867-7.652C241.753,426.318,245.311,423.398,249.401,423.709z"/>
				</g>
			</g>
			<g>
				<path style="fill:#FEDFC5;" d="M277.744,495.399l-3.787-3.152c0,0,0.519-4.363-0.374-7.066c-0.892-2.703-1.706-3.542-2.34-5.476      c-0.703-2.142-1.719-3.998-2.399-6.289c-1.351-4.549-4.278-3.642-3.936,0.096c0.317,3.464,0.592,7.653-0.506,8.59      c-1.098,0.938-4.457-1.712-4.658-4.129c-0.202-2.417,3.914-3.827,4.286-6.229c0.327-2.11-3.288-2.308-3.288-2.308      s-0.706-0.659-1.755-0.847c-0.741-0.133-2.743,0.034-5.003,1.916c-2.461-0.161-7.982,5.564-8.536,8.218      c-0.555,2.654-0.049,10.023,1.177,12.321c1.227,2.298,6.491,6.212,9.551,6.817c3.06,0.606,9.063,2.209,9.063,2.209l4.912,2.989      L277.744,495.399z"/>
				<g>
					<path style="fill:#EDC4A9;" d="M254.057,470.165c-0.155-0.219-0.456-0.268-0.674-0.117c-0.101,0.071-2.486,1.779-4.083,5.56       c-0.228,0.541-0.589,2.07-0.446,6.243c0.01,0.262,0.225,0.468,0.484,0.468c0.284-0.01,0.493-0.233,0.484-0.5       c-0.147-4.252,0.246-5.541,0.369-5.834c1.482-3.509,3.727-5.129,3.749-5.144C254.159,470.685,254.211,470.384,254.057,470.165z       "/>
					<path style="fill:#EDC4A9;" d="M260.738,469.291c-0.096-0.252-0.376-0.377-0.625-0.281c-2.644,1.005-5.222,3.888-5.67,5.34       c-0.452,1.466-0.987,4.792-1.01,4.933c-0.042,0.265,0.137,0.513,0.401,0.555c0.027,0.004,0.052,0.006,0.077,0.006       c0.233,0,0.439-0.169,0.477-0.407c0.006-0.034,0.548-3.4,0.98-4.802c0.333-1.083,2.575-3.764,5.089-4.72       C260.707,469.82,260.833,469.54,260.738,469.291z"/>
				</g>
			</g>
			<g>
				<path style="fill:#9BCCBD;" d="M339.378,452.823c0,0-6.945,4.666-15.454,18.389c-8.313,13.407-9.184,22.59-11.815,23.439      c-1.797,0.578-2.087-0.433-3.992,0.6c-3.344,1.817-4.217,4.671-4.217,4.671s-7.74-5.549-13.768-5.787      c-10.07-0.397-9.503-0.015-9.503-0.015s-5.34,5.149-6.948,7.024c-1.069,1.246-3.91,5.273-3.91,5.273s3.35,17.886,28.328,25.184      c11.744,3.431,14.804,3.43,16.538,3.389c-0.334,1.755-0.803,3.487-1.052,5.888c-0.068,0.659-0.12,1.368-0.148,2.141      c-0.046,1.27-9.301,0.564-17.503,7.18c-6.19,4.993-5.098,19.689-2.447,22.591c2.49,2.727,31.451-3.515,31.451-3.515      s32.872,1.273,50.372-6.651c8.552-3.873,13.393-14.523,13.393-14.523s15.389,1.773,19.525-21.462      c4.097-23.018-3.538-42.72-9.359-54.326c-10.136-20.203-20.258-24.132-20.258-24.132s-2.902,4.293-9.863,5.844      C355.564,456.964,339.378,452.823,339.378,452.823z"/>
				<g>
					<path style="fill:#E4F9EA;" d="M356.549,488.504c1.938-0.127,3.617,1.402,3.749,3.415c0.132,2.013-1.332,3.748-3.27,3.875       s-3.616-1.402-3.749-3.415C353.146,490.366,354.61,488.631,356.549,488.504z"/>
					<path style="fill:#E4F9EA;" d="M351.385,524.649c1.938-0.127,3.616,1.402,3.749,3.415c0.132,2.013-1.332,3.748-3.27,3.875       c-1.938,0.127-3.617-1.402-3.749-3.415C347.983,526.511,349.447,524.776,351.385,524.649z"/>
					<path style="fill:#E4F9EA;" d="M400.175,490.318c1.395-0.091,2.595,0.885,2.68,2.181c0.085,1.296-0.977,2.421-2.372,2.513       c-1.395,0.091-2.595-0.885-2.68-2.181C397.718,491.535,398.78,490.409,400.175,490.318z"/>
					<path style="fill:#E4F9EA;" d="M344.327,465.954c1.777-0.116,3.314,1.261,3.433,3.076c0.119,1.816-1.224,3.382-3.001,3.498       c-1.777,0.117-3.314-1.261-3.433-3.076C341.206,467.637,342.55,466.07,344.327,465.954z"/>
					<path style="fill:#E4F9EA;" d="M332.792,511.304c1.343-0.088,2.498,0.86,2.581,2.118c0.083,1.258-0.939,2.348-2.282,2.436       c-1.343,0.088-2.499-0.86-2.581-2.118C330.427,512.483,331.449,511.393,332.792,511.304z"/>
					<path style="fill:#E4F9EA;" d="M384.428,462.25c1.343-0.088,2.498,0.86,2.581,2.118c0.083,1.258-0.939,2.348-2.282,2.437       c-1.343,0.088-2.499-0.86-2.581-2.118C382.064,463.429,383.085,462.338,384.428,462.25z"/>
					<path style="fill:#E4F9EA;" d="M325.318,483.12c1.411-0.093,2.627,0.922,2.715,2.266c0.088,1.344-0.984,2.508-2.395,2.601       c-1.411,0.093-2.626-0.922-2.715-2.266C322.835,484.377,323.907,483.212,325.318,483.12z"/>
					<path style="fill:#E4F9EA;" d="M369.437,469.697c1.51-0.099,2.816,1.075,2.917,2.621c0.102,1.547-1.04,2.881-2.549,2.98       c-1.509,0.099-2.816-1.075-2.917-2.621C366.786,471.13,367.927,469.796,369.437,469.697z"/>
					<path style="fill:#E4F9EA;" d="M378.322,513.449c1.316-0.086,2.454,0.916,2.541,2.239c0.087,1.323-0.91,2.465-2.226,2.551       c-1.316,0.086-2.454-0.916-2.541-2.239C376.009,514.677,377.005,513.535,378.322,513.449z"/>
					<path style="fill:#E4F9EA;" d="M347.555,549.594c1.316-0.086,2.454,0.916,2.541,2.238c0.087,1.323-0.91,2.465-2.226,2.551       c-1.316,0.086-2.454-0.916-2.541-2.239C345.242,550.823,346.239,549.681,347.555,549.594z"/>
					<path style="fill:#E4F9EA;" d="M325.179,540.988c1.316-0.086,2.454,0.916,2.541,2.239c0.087,1.323-0.91,2.465-2.226,2.551       c-1.316,0.086-2.454-0.916-2.541-2.239C322.866,542.217,323.863,541.075,325.179,540.988z"/>
					<path style="fill:#E4F9EA;" d="M295.488,504.197c1.317-0.086,2.454,0.916,2.541,2.238c0.087,1.323-0.91,2.465-2.226,2.551       c-1.316,0.086-2.454-0.916-2.541-2.238C293.175,505.426,294.172,504.284,295.488,504.197z"/>
					<path style="fill:#E4F9EA;" d="M314.099,518.236c1.316-0.086,2.454,0.916,2.541,2.239c0.087,1.323-0.91,2.465-2.226,2.551       c-1.316,0.086-2.454-0.916-2.541-2.238C311.786,519.464,312.782,518.322,314.099,518.236z"/>
					<path style="fill:#E4F9EA;" d="M398.289,527.795c1.052-0.085,1.948,0.686,2.001,1.723c0.054,1.037-0.755,1.947-1.807,2.032       c-1.051,0.085-1.948-0.686-2.001-1.723C396.428,528.79,397.237,527.88,398.289,527.795z"/>
					<path style="fill:#E4F9EA;" d="M280.816,513.595c1.052-0.085,1.948,0.686,2.001,1.723c0.054,1.037-0.755,1.946-1.807,2.032       c-1.052,0.085-1.948-0.686-2.001-1.723C278.955,514.59,279.764,513.68,280.816,513.595z"/>
					<path style="fill:#E4F9EA;" d="M381.937,487.346c1.052-0.085,1.948,0.686,2.002,1.723c0.053,1.037-0.755,1.946-1.807,2.032       c-1.052,0.085-1.948-0.686-2.001-1.723C380.076,488.341,380.886,487.431,381.937,487.346z"/>
					<path style="fill:#E4F9EA;" d="M379.115,543.909c0.957-0.063,1.782,0.634,1.843,1.556c0.061,0.922-0.666,1.721-1.624,1.783       c-0.957,0.063-1.783-0.634-1.843-1.556C377.431,544.77,378.158,543.972,379.115,543.909z"/>
				</g>
				<path style="fill:#D3F4DE;" d="M264.816,502.771l4.962,3.738c0,0,1.868-2.571,4.328-5.548c2.098-2.538,6.537-6.876,6.537-6.876      l-4.884-4.091c0,0-4.354,4.115-5.659,5.623C266.995,499.207,264.816,502.771,264.816,502.771z"/>
				<g>
					<path style="fill:#D3F4DE;" d="M390.468,478.754c-0.068-0.349-0.401-0.577-0.755-0.513c-0.351,0.067-0.58,0.405-0.513,0.755       c0.039,0.203,3.851,20.42,3.217,34.219c-0.902,19.625-4.757,29.383-4.796,29.479c-0.133,0.33,0.026,0.707,0.357,0.841       c0.079,0.031,0.161,0.046,0.242,0.046c0.255,0,0.497-0.152,0.599-0.403c0.161-0.4,3.973-10.027,4.886-29.903       C394.347,499.322,390.507,478.959,390.468,478.754z"/>
					<path style="fill:#D3F4DE;" d="M349.083,500.719c-0.347-0.042-0.678,0.197-0.729,0.55c-0.034,0.243-3.675,24.438-25.551,32.592       c-0.11,0.043-11.735,3.887-31.87-6.025c-0.319-0.156-0.707-0.025-0.864,0.294c-0.157,0.32-0.026,0.706,0.294,0.863       c11.459,5.642,20.304,6.904,25.92,6.904c4.491,0,6.919-0.807,6.971-0.826c22.609-8.429,26.343-33.372,26.378-33.623       C349.681,501.095,349.436,500.768,349.083,500.719z"/>
				</g>
			</g>
		</g>
		<g>
			<g>
				<path style="fill:#FEDFC5;" d="M344.142,573.024l-27.173-8.231c0,0-5.59-7.136-11.397-12.781      c-5.806-5.645-12.64-7.59-17.297-9.895c-5.661-2.801-7.893-5.155-10.065-4.306c-5.525,2.161,4.078,11.326,4.078,11.326      s-7.537-2.33-14.834-4.122c-7.297-1.792-14.785-2.351-18.04-1.641c-2.741,0.598-4.014,1.606-2.648,3.556      c1.149,1.64,4.775,3.664,4.775,3.664s-2.484-0.633-5.871-1.084c-2.423-0.323-6.206-0.552-7.445-0.096      c-5.272,1.939-1.436,5.806,0.749,7.271c2.109,1.414,8.926,5.116,8.926,5.116s-6.452-0.701-8.546-0.364      c-1.915,0.31-4.348,0.806-3.81,3.404c0.538,2.6,5.442,5.277,5.442,5.277s-1.192,1.48,1.09,4.701      c3.549,5.011,15.649,8.838,15.649,8.838s15.881,7.807,24.495,9.794c6.752,1.558,27.836,1.458,27.836,1.458l33.087,5.562      L344.142,573.024z"/>
				<g>
					<path style="fill:#EDC4A9;" d="M291.67,555.444c-0.13-0.099-3.215-2.448-4.689-3.474c-2.07-1.44-4.644-2.718-4.753-2.773       c-0.303-0.15-0.673-0.028-0.825,0.279c-0.151,0.305-0.026,0.674,0.279,0.825c0.026,0.012,2.602,1.293,4.596,2.68       c1.452,1.01,4.614,3.419,4.646,3.443c0.165,0.125,0.372,0.155,0.556,0.098c0.118-0.036,0.226-0.109,0.306-0.215       C291.993,556.036,291.94,555.649,291.67,555.444z"/>
					<path style="fill:#EDC4A9;" d="M271.813,558.985c-2.513-0.733-20.27-8.447-20.449-8.525c-0.311-0.135-0.674,0.005-0.81,0.319       c-0.136,0.312,0.007,0.674,0.319,0.81c0.734,0.319,18.008,7.823,20.595,8.578c0.12,0.034,0.243,0.032,0.354-0.003       c0.191-0.059,0.349-0.21,0.409-0.415C272.327,559.422,272.139,559.08,271.813,558.985z"/>
					<path style="fill:#EDC4A9;" d="M248.246,561.991c-0.322-0.1-0.669,0.082-0.771,0.406c-0.101,0.325,0.081,0.67,0.406,0.771       l12.338,3.825c0.124,0.039,0.25,0.036,0.365,0c0.187-0.058,0.344-0.205,0.406-0.406c0.101-0.325-0.081-0.67-0.405-0.771       L248.246,561.991z"/>
					<path style="fill:#EDC4A9;" d="M241.475,570.329c-0.313-0.133-0.675,0.012-0.808,0.324c-0.134,0.312,0.01,0.674,0.324,0.809       c0.032,0.013,3.231,1.38,7.877,3.044c2.236,0.801,8.595,3.12,8.595,3.12l0.422-1.156c0,0-6.364-2.322-8.602-3.124       C244.676,571.696,241.508,570.343,241.475,570.329z"/>
				</g>
			</g>
			<path style="fill:#FE9F9F;" d="M324.988,564.764c0,0,41.922-0.761,56.493-6.498c15.383,2.132,20.538,14.757,20.025,29.701     c-0.591,17.227-19.704,22.865-45.005,23.228c-21.542,0.309-42.285-10.23-42.285-10.23L324.988,564.764z"/>
			<path style="fill:#FD9292;" d="M328.462,564.941l-13.183-3.731c0,0-4.302,10.458-6.023,17.977     c-1.159,5.067-2.52,18.945-2.52,18.945l16.241,6.547c0,0-0.83-10.459,0.199-19.114     C323.795,580.367,328.462,564.941,328.462,564.941z"/>
		</g>
		<g>
			<g>
				<path style="fill:#FEDFC5;" d="M310.467,562.231l25.305-12.762c0,0,4.409-8.268,9.247-15.025      c4.837-6.757,11.22-9.837,15.425-12.951c5.113-3.785,6.945-6.573,9.189-6.03c5.707,1.381-2.32,12.377-2.32,12.377      s7.935-2.187,14.791-5.181c6.856-2.994,12.491-6.415,15.77-6.186c2.761,0.193,4.599,1.694,3.147,4.196      c-0.881,1.879-2.767,4.276-2.767,4.276s2.542-1.654,5.728-3.429c2.566-1.429,4.195-1.533,5.285-1.089      c1.797,0.732,2.31,2.909,1.291,5.567c-0.631,1.647-1.667,2.743-1.667,2.743s1.369-1.815,3.103-1.896      c1.914,0.023,2.42,1.681,1.99,4.317c-0.516,3.157-2.797,6.938-2.797,6.938s0.699-0.861,1.802-0.054      c2.193,1.604-0.641,7.33-1.318,8.552c-2.935,5.303-11.239,11.64-15.168,14.146c-5.505,3.511-14.522,9.631-22.635,13.031      c-6.359,2.667-26.943,5.844-26.943,5.844l-31.465,10.916L310.467,562.231z"/>
				<g>
					<path style="fill:#D4AC7F;" d="M359.648,535.675c0.104-0.064,2.56-1.602,4.509-3.27c1.386-1.187,4.275-3.88,4.397-3.994       c0.261-0.242,0.275-0.651,0.031-0.912c-0.114-0.123-0.264-0.19-0.42-0.203c-0.175-0.014-0.354,0.043-0.492,0.172       c-0.03,0.027-2.991,2.788-4.357,3.957c-1.873,1.603-4.328,3.14-4.353,3.156c-0.302,0.188-0.395,0.586-0.205,0.889       C358.947,535.772,359.345,535.863,359.648,535.675z"/>
					<path style="fill:#D4AC7F;" d="M398.125,524.529c-0.231-0.272-0.637-0.305-0.909-0.077c-0.038,0.032-3.861,3.246-8.167,6.057       c-3.411,2.227-6.922,3.743-8.808,4.557c-0.533,0.229-0.948,0.408-1.209,0.537c-0.32,0.158-0.452,0.545-0.296,0.864       c0.112,0.229,0.342,0.362,0.58,0.362c0.096,0,0.193-0.021,0.284-0.065c0.249-0.122,0.646-0.293,1.154-0.512       c1.921-0.829,5.498-2.374,9.002-4.661c4.373-2.857,8.254-6.12,8.293-6.153C398.32,525.208,398.356,524.801,398.125,524.529z"/>
					<path style="fill:#D4AC7F;" d="M408.357,530.261c0.24-0.264,0.221-0.672-0.043-0.913c-0.262-0.238-0.672-0.22-0.913,0.043       c-0.051,0.056-5.096,5.58-9.281,8.884c-3.459,2.729-7.931,5.159-7.976,5.184c-0.313,0.169-0.43,0.561-0.26,0.875       c0.116,0.216,0.339,0.338,0.567,0.338c0.105,0,0.209-0.025,0.308-0.078c0.186-0.101,4.613-2.505,8.16-5.305       C403.188,535.92,408.305,530.317,408.357,530.261z"/>
					<path style="fill:#D4AC7F;" d="M410.911,537.802c-0.314-0.177-0.706-0.065-0.879,0.246c-0.026,0.045-2.574,4.543-6.321,7.536       c-1.804,1.442-7.705,5.054-7.764,5.091c-0.304,0.186-0.4,0.584-0.214,0.887c0.122,0.199,0.334,0.309,0.551,0.309       c0.116,0,0.232-0.03,0.337-0.094c0.246-0.15,6.031-3.693,7.898-5.184c3.941-3.149,6.531-7.719,6.639-7.912       C411.332,538.37,411.221,537.976,410.911,537.802z"/>
				</g>
			</g>
			<path style="fill:#FE9F9F;" d="M205.095,628.633c13.46,0.754,40.441-3.905,55.349-7.298c14.908-3.394,52.08-14.481,63.839-29.337     c3.922-5.67-7.363-36.461-7.363-36.461s-2.702-1.298-18.959-1.094c-5.814,0.073-12.918,1.144-23.071,1.749     c-8.28,0.493-37.23,4.774-37.23,4.774s-3.695-3.799-7.972-5.23c-2.589-0.866-6.569,0.104-6.569,0.104s-30.313-74.572-31.524-77.5     c-4.351-10.51-9.312-25.19-18.999-38.952c-11.871-16.864-21.482-19.24-24.811-15.377c-6.045,7.014-15.665,18.253-12.599,52.492     c2.521,28.16,10.466,58.634,18.386,81.244c2.57,7.337,5.338,14.026,7.717,19.359c2.083,4.67,5.713,11.282,7.866,15.047     C179.223,609.757,189.004,627.976,205.095,628.633z"/>
			<g>
				<path style="fill:#D36767;" d="M325.179,589.82c-0.303-0.187-0.701-0.095-0.888,0.208c-0.039,0.063-3.974,6.326-10.773,10.5      c-20.002,12.272-46.549,17.802-46.814,17.856c-0.349,0.072-0.575,0.413-0.503,0.763c0.062,0.305,0.332,0.516,0.632,0.516      c0.043,0,0.086-0.004,0.13-0.013c0.268-0.056,27.032-5.628,47.232-18.022c7.07-4.339,11.029-10.653,11.194-10.919      C325.575,590.405,325.482,590.008,325.179,589.82z"/>
				<path style="fill:#D36767;" d="M206.823,516.677c7.176,17.41,15.23,38.818,15.311,39.033l0.158,0.42l0.449-0.001      c0.069,0.009,5.986-0.009,9.28,1.326c2.924,1.183,4.874,4.087,4.894,4.117l0.23,0.347l0.41-0.066      c0.363-0.059,36.531-5.826,58.208-6.881c10.279-0.49,21.146,1.519,21.255,1.539c0.349,0.071,0.688-0.164,0.754-0.514      c0.066-0.351-0.164-0.688-0.514-0.754c-0.11-0.021-11.118-2.071-21.557-1.559c-20.518,0.998-53.935,6.197-57.953,6.831      c-0.65-0.875-2.543-3.165-5.242-4.258c-3.015-1.221-7.824-1.393-9.319-1.416c-1.16-3.075-8.539-22.568-15.169-38.656      c-8.042-19.511-14.606-36.284-14.671-36.451c-0.13-0.334-0.503-0.497-0.836-0.367c-0.332,0.13-0.496,0.504-0.366,0.836      C192.208,480.372,198.776,497.155,206.823,516.677z"/>
				<path style="fill:#D36767;" d="M253.156,621.564c-0.16,0.032-16.039,3.11-21.269,3.868c-5.416,0.785-21.86,2.132-22.034,2.146      c-0.134,0.018-13.828,1.209-21.027-7.457c-22.43-27.001-33.89-62.419-34.003-62.774c-0.109-0.339-0.472-0.524-0.811-0.419      c-0.34,0.108-0.527,0.471-0.419,0.812c0.114,0.357,11.646,36.007,34.24,63.205c5.936,7.147,15.657,8.002,19.972,8.002      c1.239,0,2.033-0.071,2.162-0.083c0.166-0.013,16.65-1.363,22.106-2.153c5.261-0.763,21.17-3.847,21.33-3.878      c0.35-0.068,0.579-0.407,0.511-0.758C253.844,621.726,253.507,621.505,253.156,621.564z"/>
			</g>
			<path style="fill:#F68685;" d="M315.868,555.013l16.089-5.567c1.587,3.6,4.946,12.472,6.504,18.091     c1.936,6.985,3.106,16.056,3.106,16.056l-17.3,8.736c0,0-0.336-8.259-3.051-19.349     C318.135,560.398,315.868,555.013,315.868,555.013z"/>
		</g>
	</g>
	<g>
		
		<path id="SVGID_x5F_00000038374928804718913200000011825759092664562359_x5F_" style="fill:none;" d="M16.189,752.991    c-7.22,1.184,24.469,12.095,63.499,13.88c17.014,0.778,35.889,1.876,51.21-0.669c59.762-9.93,94.348-23.692,172.037-30.793    c62.255-5.69,107.607-0.418,128.191,3.849c21.19,4.392,37.444,3.32,51.23,2.868c29.288-0.959,51.851-8.889,51.851-8.889"/>
		
		<g>
			<path style="fill:#D3F4DE;" d="M486.481,677.528c0,0-0.289-3.427-2.362-7.85c-2.466-5.241-7.961-6.133-7.961-6.133     s-3.964,5.615-1.961,11.568c1.282,3.81,2.127,4.838,2.127,4.838s-1.762-0.84-6.702-1.906c-4.864-1.05-10.711,1.797-10.711,1.797     s2.044,7.107,9.764,9.095c3.738,0.963,7.244,0.763,7.244,0.763c-0.552,0.536-1.865,2.332-2.761,5.225     c-1.468,4.737,0.496,11.066,0.496,11.066s8.409-1.892,11.231-6.772c1.907-3.298,2.312-6.882,2.312-6.882s2.957,3.456,7.368,5.033     c4.492,1.607,12.531,0.165,12.531,0.165s-2.195-5.261-7.195-8.965c-2.576-1.907-7.405-3.008-7.405-3.008s5.958-2.584,8.518-6.052     c4.139-5.608,2.56-11.933,2.56-11.933c-6.32,0.184-9.992,0.922-12.924,3.551C487.766,673.715,486.481,677.528,486.481,677.528z"/>
			<path style="fill:#FFFFFF;" d="M473.203,706.768l-0.181-0.583c-0.083-0.266-2.006-6.58-0.496-11.457     c0.597-1.928,1.369-3.39,2.017-4.356c-1.395-0.029-3.658-0.185-6.034-0.797c-7.994-2.059-10.147-9.247-10.235-9.552l-0.154-0.534     l0.499-0.243c0.247-0.12,6.109-2.932,11.139-1.848c2.387,0.515,4.046,0.979,5.132,1.326c-0.358-0.772-0.806-1.869-1.322-3.401     c-2.085-6.2,1.878-11.92,2.048-12.16l0.238-0.337l0.408,0.066c0.239,0.039,5.868,1.012,8.453,6.504     c1.098,2.344,1.706,4.406,2.039,5.861c0.703-1.367,1.832-3.167,3.453-4.62c3.211-2.88,7.325-3.545,13.346-3.72l0.532-0.015     l0.128,0.516c0.068,0.27,1.606,6.693-2.669,12.485c-1.812,2.454-5.166,4.444-7.167,5.483c1.686,0.505,4.23,1.407,5.915,2.654     c5.088,3.769,7.319,9.02,7.411,9.242l0.317,0.759l-0.81,0.145c-0.335,0.06-8.264,1.453-12.871-0.193     c-3.099-1.108-5.481-3.081-6.715-4.261c-0.291,1.383-0.915,3.647-2.171,5.818c-2.932,5.071-11.302,7.005-11.657,7.085     L473.203,706.768z M477.647,688.94l-1.267,1.232c-0.421,0.409-1.707,2.096-2.591,4.947c-1.132,3.654-0.101,8.405,0.328,10.068     c1.941-0.535,7.98-2.469,10.195-6.3c1.817-3.142,2.223-6.589,2.227-6.624l0.17-1.506l0.988,1.151     c0.028,0.033,2.904,3.344,7.089,4.841c3.432,1.226,9.164,0.58,11.329,0.271c-0.803-1.565-2.937-5.198-6.609-7.918     c-2.436-1.804-7.111-2.885-7.158-2.896l-1.963-0.448l1.847-0.802c0.058-0.025,5.827-2.556,8.25-5.839     c3.242-4.392,2.802-9.286,2.55-10.862c-6.363,0.227-9.413,1.097-11.941,3.364c-2.724,2.443-3.973,6.083-3.986,6.119l-1.012,3.002     l-0.272-3.157c-0.003-0.034-0.31-3.376-2.301-7.626c-1.908-4.055-5.784-5.346-7.055-5.669c-0.789,1.301-3.232,5.891-1.642,10.613     c1.203,3.577,2.007,4.625,2.016,4.635l1.739,2.217l-2.539-1.207c-0.015-0.007-1.787-0.827-6.557-1.856     c-3.746-0.808-8.219,0.86-9.743,1.505c0.652,1.639,3.069,6.547,9.1,8.1c3.589,0.924,7.009,0.745,7.042,0.744L477.647,688.94z"/>
			<path style="fill:#FFFFFF;" d="M486.398,684.629c0,1.52-1.232,2.753-2.753,2.753c-1.52,0-2.753-1.232-2.753-2.753     c0-1.52,1.232-2.753,2.753-2.753C485.166,681.877,486.398,683.109,486.398,684.629z"/>
		</g>
		<g>
			<path style="fill:#D3F4DE;" d="M110.126,692.405c0,0,3-1.682,6.169-5.399c3.751-4.414,2.288-9.785,2.288-9.785     s-6.752-1.284-11.342,3.002c-2.938,2.744-3.524,3.938-3.524,3.938s0.035-1.951-1.039-6.89c-1.058-4.862-6.068-9.007-6.068-9.007     s-5.623,4.802-4.238,12.653c0.671,3.801,2.303,6.91,2.303,6.91c-0.717-0.28-2.895-0.732-5.899-0.351     c-4.92,0.624-9.868,5.031-9.868,5.031s5.203,6.872,10.813,7.421c3.792,0.371,7.222-0.743,7.222-0.743s-1.922,4.122-1.532,8.791     c0.397,4.755,5.036,11.476,5.036,11.476s3.881-4.176,5.183-10.26c0.67-3.134-0.326-7.986-0.326-7.986s4.818,4.354,9.035,5.249     c6.818,1.447,11.922-2.608,11.922-2.608c-2.783-5.677-4.975-8.714-8.581-10.295C114.128,691.996,110.126,692.405,110.126,692.405     z"/>
			<path style="fill:#FFFFFF;" d="M78.012,692.42l0.456-0.406c0.208-0.185,5.16-4.55,10.224-5.193     c2.002-0.254,3.652-0.157,4.8,0.034c-0.551-1.282-1.345-3.407-1.772-5.823c-1.434-8.129,4.218-13.064,4.46-13.27l0.422-0.361     l0.428,0.354c0.211,0.175,5.198,4.348,6.293,9.375c0.519,2.386,0.784,4.088,0.917,5.221c0.554-0.645,1.368-1.507,2.549-2.611     c4.781-4.464,11.628-3.224,11.918-3.169l0.405,0.077l0.109,0.398c0.064,0.233,1.508,5.761-2.423,10.387     c-1.679,1.97-3.305,3.377-4.491,4.281c1.535,0.074,3.641,0.357,5.635,1.232c3.951,1.731,6.258,5.201,8.91,10.609l0.234,0.478     l-0.417,0.33c-0.218,0.174-5.429,4.232-12.47,2.738c-2.984-0.634-6.183-2.863-7.958-4.255c0.239,1.744,0.47,4.433,0.032,6.483     c-1.325,6.191-5.182,10.396-5.346,10.572l-0.56,0.603l-0.467-0.677c-0.194-0.281-4.744-6.922-5.151-11.797     c-0.274-3.279,0.536-6.265,1.099-7.877c-1.379,0.307-3.699,0.676-6.195,0.432c-5.83-0.57-11.055-7.39-11.274-7.68L78.012,692.42z      M96.08,689.086l-1.646-0.643c-0.547-0.214-2.614-0.687-5.576-0.311c-3.795,0.482-7.693,3.387-9.029,4.466     c1.291,1.546,5.551,6.242,9.955,6.674c3.612,0.354,6.919-0.703,6.952-0.714l1.442-0.468l-0.639,1.376     c-0.018,0.039-1.842,4.028-1.473,8.457c0.304,3.631,3.265,8.582,4.442,10.426c1.092-1.379,3.516-4.825,4.473-9.293     c0.634-2.964-0.317-7.667-0.327-7.714l-0.405-1.973l1.494,1.35c0.047,0.042,4.739,4.247,8.729,5.093     c5.34,1.133,9.613-1.292,10.943-2.174c-2.84-5.698-4.894-8.115-8.004-9.478c-3.352-1.469-7.182-1.099-7.22-1.096l-3.152,0.322     l2.761-1.554c0.029-0.017,2.945-1.68,5.99-5.251c2.902-3.416,2.473-7.478,2.241-8.769c-1.511-0.18-6.7-0.504-10.341,2.897     c-2.759,2.576-3.38,3.741-3.386,3.753l-1.298,2.501l0.048-2.811c0-0.017,0.013-1.969-1.024-6.737     c-0.815-3.745-4.184-7.126-5.403-8.246c-1.222,1.271-4.69,5.503-3.608,11.637c0.645,3.65,2.223,6.689,2.238,6.719L96.08,689.086z     "/>
			<path style="fill:#FFFFFF;" d="M103.627,695.269c-1.384,0.629-3.016,0.017-3.645-1.366c-0.629-1.384-0.017-3.016,1.367-3.645     c1.384-0.629,3.016-0.017,3.645,1.367C105.623,693.008,105.011,694.64,103.627,695.269z"/>
		</g>
	</g>
</g>

</svg>