<?xml version="1.0" encoding="utf-8"?>
<!-- Generator: Adobe Illustrator 27.5.0, SVG Export Plug-In . SVG Version: 6.00 Build 0)  -->
<svg version="1.1" xmlns="http://www.w3.org/2000/svg" xmlns:xlink="http://www.w3.org/1999/xlink" x="0px" y="0px"
	 viewBox="0 0 500 500" style="enable-background:new 0 0 500 500;" xml:space="preserve">
<g id="OBJECT">
	<g>
		<g>
			<path style="fill:#7FB6FF;" d="M419.895,338.224c-10.618,15.217-21.691,28.393-32.878,39.798
				c-57.397,58.547-117.446,70.459-130.985,72.469c-1.429,0.217-2.341,0.321-2.672,0.352v0.021c0,0-0.042,0-0.083-0.01
				c-0.062,0.01-0.083,0.01-0.083,0.01v-0.021c-1.025-0.104-7.386-0.829-17.444-3.408c-3.325-0.839-7.064-1.896-11.146-3.201
				c-20.438-6.484-49.566-19.122-79.969-43.475c-10.887-8.712-21.94-18.925-32.795-30.889c-8.577-9.426-17.019-19.93-25.203-31.646
				C14.116,234.286,59.3,129.29,131.769,119.553c70.853-9.52,119.383,38.845,121.507,40.999
				c2.124-2.155,50.633-50.519,121.496-40.999C447.241,129.29,492.426,234.286,419.895,338.224z"/>
			<path style="fill:#A1CEFF;" d="M387.016,378.022c-57.397,58.547-117.446,70.459-130.985,72.469
				c-1.429,0.217-2.341,0.321-2.672,0.352v0.021c0,0-0.042,0-0.083-0.01c-0.062,0.01-0.083,0.01-0.083,0.01v-0.021
				c-1.025-0.104-7.386-0.829-17.444-3.408c-3.325-0.839-7.064-1.896-11.146-3.201c-20.438-6.484-49.566-19.122-79.969-43.475
				c-10.887-8.712-21.94-18.925-32.795-30.889c23.431-51.669,75.463-87.603,135.884-87.603
				C311.274,282.267,365.543,322.013,387.016,378.022z"/>
			<path style="fill:#F4D3D5;" d="M87.193,414.728c0,0,11.452-6.033,23.676-7.845c16.554-2.455,25.617,8.369,25.617,8.369
				S120.442,435.975,87.193,414.728z"/>
			<path style="fill:#F4D3D5;" d="M122.452,368.189c0,0,9.161,9.144,14.521,20.279c7.259,15.079-0.386,26.946-0.386,26.946
				S112.034,406.247,122.452,368.189z"/>
			<path style="fill:#F4D3D5;" d="M65.186,393.861c0,0,9.026-4.804,18.677-6.277c13.069-1.995,20.264,6.525,20.264,6.525
				S91.522,410.534,65.186,393.861z"/>
			<path style="fill:#F4D3D5;" d="M91.373,357.329c0,0-1.649,10.091,0.058,19.703c2.311,13.017,12.691,17.092,12.691,17.092
				S115.624,376.911,91.373,357.329z"/>
			<path style="fill:#F4D3D5;" d="M54.833,357.826c0,0,10.136,1.345,18.841,5.763c11.789,5.983,12.683,17.098,12.683,17.098
				S66.549,386.71,54.833,357.826z"/>
			<path style="fill:#F4D3D5;" d="M401.635,416.152c0,0-11.452-6.033-23.676-7.845c-16.554-2.455-25.617,8.369-25.617,8.369
				S368.386,437.399,401.635,416.152z"/>
			<path style="fill:#F4D3D5;" d="M366.376,369.613c0,0-9.161,9.144-14.521,20.279c-7.259,15.079,0.386,26.946,0.386,26.946
				S376.793,407.671,366.376,369.613z"/>
			<path style="fill:#F4D3D5;" d="M423.641,395.286c0,0-9.026-4.804-18.677-6.277c-13.069-1.995-20.264,6.525-20.264,6.525
				S397.305,411.958,423.641,395.286z"/>
			<path style="fill:#F4D3D5;" d="M397.455,358.753c0,0,1.649,10.091-0.058,19.703c-2.311,13.017-12.691,17.092-12.691,17.092
				S373.204,378.335,397.455,358.753z"/>
			<path style="fill:#F4D3D5;" d="M433.995,359.25c0,0-10.136,1.345-18.841,5.763c-11.789,5.983-12.683,17.098-12.683,17.098
				S422.278,388.134,433.995,359.25z"/>
			<path style="fill:#5085E2;" d="M100.634,205.092l6.476-2.66l-7.038-2.897c-2.227-0.917-3.982-2.702-4.862-4.943l-2.353-5.997
				l-2.424,6.165c-0.899,2.286-2.709,4.095-4.996,4.992l-6.833,2.681l6.305,2.479c2.241,0.881,4.025,2.639,4.94,4.866l3.007,7.322
				l2.963-7.198C96.718,207.72,98.451,205.988,100.634,205.092z"/>
			<path style="fill:#5085E2;" d="M126.653,150.413l4.405-1.809l-4.786-1.97c-1.514-0.623-2.709-1.838-3.307-3.362l-1.6-4.079
				l-1.648,4.193c-0.611,1.555-1.842,2.785-3.398,3.395l-4.647,1.823l4.288,1.686c1.524,0.599,2.738,1.795,3.36,3.309l2.045,4.98
				l2.015-4.895C123.99,152.2,125.169,151.022,126.653,150.413z"/>
			<path style="fill:#5085E2;" d="M286.28,325.838l4.405-1.809l-4.786-1.97c-1.514-0.623-2.709-1.838-3.307-3.362l-1.6-4.079
				l-1.648,4.193c-0.611,1.555-1.842,2.785-3.398,3.395l-4.647,1.823l4.288,1.686c1.524,0.599,2.738,1.794,3.36,3.309l2.045,4.98
				l2.015-4.895C283.617,327.625,284.796,326.448,286.28,325.838z"/>
			<path style="fill:#5085E2;" d="M392.452,162.168l4.405-1.809l-4.786-1.97c-1.514-0.623-2.709-1.838-3.307-3.362l-1.6-4.079
				l-1.648,4.193c-0.611,1.555-1.842,2.785-3.398,3.395l-4.647,1.823l4.288,1.686c1.524,0.599,2.738,1.794,3.36,3.309l2.045,4.98
				l2.015-4.896C389.789,163.955,390.968,162.777,392.452,162.168z"/>
			<path style="fill:#5085E2;" d="M435.487,234.463l7.259-2.982l-7.889-3.247c-2.496-1.027-4.464-3.029-5.45-5.541l-2.637-6.723
				l-2.717,6.91c-1.008,2.563-3.037,4.59-5.6,5.596l-7.66,3.005l7.068,2.779c2.512,0.988,4.512,2.958,5.538,5.454l3.371,8.208
				l3.321-8.068C431.098,237.409,433.041,235.468,435.487,234.463z"/>
			<g>
				<path style="fill:#F4D3D5;" d="M461.351,141.076c-0.418-1.037-3.867-0.163-3.867-0.163s2.497-2.073,1.747-3.104
					c-0.75-1.031-10.461-1.648-15.753,2.751c-0.78,0.649-1.477,1.298-2.111,1.935c0.184-1.144,0.328-2.339,0.399-3.588
					c0.495-8.655-5.497-15.395-6.687-15.395c-1.118,0-1.597,3.525-1.597,3.525s-0.989-3.091-2.226-2.78
					c-1.236,0.311-5.44,9.086-3.338,15.639c0.437,1.361,0.933,2.576,1.444,3.66c-0.71-0.341-1.472-0.674-2.287-0.987
					c-6.424-2.468-15.423,1.235-15.803,2.452c-0.38,1.217,2.651,2.379,2.651,2.379s-3.547,0.28-3.61,1.396
					c-0.067,1.188,6.325,7.55,14.994,7.544c0.181,0,0.355-0.01,0.534-0.013c-0.362,0.469-0.72,0.951-1.069,1.456
					c-4.929,7.132-3.324,16.006-2.308,16.625c0.954,0.582,3.199-2.178,3.199-2.178s-0.765,3.154,0.452,3.533
					c1.217,0.379,9.376-4.924,10.994-11.613c0.232-0.957,0.4-1.868,0.527-2.734c0.221,0.509,0.455,1.02,0.708,1.534
					c3.836,7.774,12.371,10.685,13.407,10.099c0.973-0.551-0.348-3.854-0.348-3.854s2.384,2.202,3.307,1.322
					c0.923-0.88,0.255-10.587-4.804-15.253c-0.686-0.633-1.364-1.197-2.025-1.708c0.559-0.158,1.122-0.328,1.691-0.52
					C457.785,150.256,461.796,142.179,461.351,141.076z"/>
				<path style="fill:#FF8D95;" d="M441.081,150.592c0,2.82-2.286,5.105-5.105,5.105c-2.82,0-5.105-2.286-5.105-5.105
					c0-2.82,2.286-5.105,5.105-5.105C438.795,145.487,441.081,147.773,441.081,150.592z"/>
			</g>
			<g>
				<path style="fill:#F4D3D5;" d="M66.385,316.219c-0.274-0.68-2.534-0.107-2.534-0.107s1.636-1.359,1.145-2.034
					c-0.492-0.675-6.855-1.08-10.323,1.803c-0.512,0.425-0.968,0.85-1.383,1.268c0.121-0.749,0.215-1.533,0.262-2.351
					c0.324-5.672-3.602-10.088-4.382-10.088c-0.733,0-1.047,2.31-1.047,2.31s-0.648-2.025-1.458-1.822
					c-0.81,0.204-3.565,5.954-2.188,10.248c0.286,0.892,0.611,1.688,0.946,2.398c-0.465-0.224-0.964-0.441-1.499-0.647
					c-4.21-1.617-10.106,0.809-10.355,1.607c-0.249,0.797,1.737,1.559,1.737,1.559s-2.324,0.183-2.365,0.915
					c-0.044,0.779,4.144,4.948,9.825,4.944c0.118,0,0.233-0.007,0.35-0.008c-0.237,0.307-0.472,0.623-0.701,0.954
					c-3.23,4.673-2.178,10.488-1.512,10.894c0.626,0.382,2.096-1.427,2.096-1.427s-0.501,2.067,0.296,2.315
					c0.798,0.248,6.144-3.227,7.204-7.61c0.152-0.627,0.262-1.224,0.346-1.792c0.145,0.333,0.298,0.669,0.464,1.005
					c2.514,5.094,8.107,7.002,8.785,6.617c0.637-0.361-0.228-2.526-0.228-2.526s1.562,1.443,2.167,0.866
					c0.605-0.576,0.167-6.938-3.148-9.995c-0.45-0.415-0.894-0.784-1.327-1.119c0.366-0.103,0.735-0.215,1.108-0.341
					C64.049,322.234,66.677,316.942,66.385,316.219z"/>
				<path style="fill:#FF8D95;" d="M53.103,322.454c0,1.848-1.498,3.345-3.346,3.345c-1.848,0-3.345-1.498-3.345-3.345
					c0-1.848,1.498-3.345,3.345-3.345C51.605,319.109,53.103,320.607,53.103,322.454z"/>
			</g>
			<g>
				<path style="fill:#F4D3D5;" d="M297.703,369.021c-0.274-0.679-2.534-0.107-2.534-0.107s1.636-1.358,1.145-2.034
					c-0.492-0.675-6.855-1.08-10.323,1.803c-0.512,0.425-0.968,0.85-1.383,1.268c0.121-0.749,0.215-1.533,0.262-2.351
					c0.324-5.672-3.602-10.088-4.382-10.088c-0.733,0-1.047,2.31-1.047,2.31s-0.648-2.025-1.458-1.822
					c-0.81,0.204-3.565,5.954-2.188,10.248c0.286,0.892,0.611,1.688,0.946,2.398c-0.465-0.224-0.964-0.441-1.499-0.647
					c-4.21-1.617-10.106,0.809-10.355,1.607c-0.249,0.798,1.737,1.559,1.737,1.559s-2.324,0.183-2.365,0.915
					c-0.044,0.779,4.144,4.947,9.825,4.943c0.118,0,0.233-0.007,0.35-0.008c-0.237,0.307-0.472,0.624-0.701,0.954
					c-3.23,4.673-2.178,10.488-1.512,10.894c0.625,0.382,2.096-1.427,2.096-1.427s-0.501,2.067,0.296,2.315s6.144-3.227,7.204-7.61
					c0.152-0.627,0.262-1.224,0.345-1.792c0.145,0.333,0.298,0.669,0.464,1.005c2.514,5.094,8.107,7.002,8.785,6.617
					c0.637-0.361-0.228-2.526-0.228-2.526s1.562,1.443,2.167,0.866c0.605-0.577,0.167-6.938-3.148-9.995
					c-0.45-0.415-0.894-0.784-1.327-1.119c0.366-0.103,0.735-0.215,1.108-0.341C295.366,375.037,297.994,369.744,297.703,369.021z"
					/>
				<path style="fill:#FF8D95;" d="M284.42,375.257c0,1.848-1.498,3.346-3.346,3.346c-1.848,0-3.345-1.498-3.345-3.346
					c0-1.848,1.498-3.345,3.345-3.345C282.922,371.911,284.42,373.409,284.42,375.257z"/>
			</g>
			<g>
				<path style="fill:#F4D3D5;" d="M481.712,187.581c-0.114-0.878-2.93-0.894-2.93-0.894s2.325-1.092,1.955-2.031
					c-0.37-0.939-7.688-3.342-12.618-1.023c-0.727,0.342-1.389,0.701-2.002,1.063c0.369-0.84,0.716-1.727,1.019-2.67
					c2.099-6.534-1.152-12.889-2.064-13.126c-0.857-0.222-1.924,2.384-1.924,2.384s-0.144-2.565-1.153-2.573
					c-1.009-0.008-5.975,5.881-5.667,11.32c0.064,1.13,0.203,2.159,0.379,3.091c-0.476-0.403-0.994-0.809-1.556-1.211
					c-4.432-3.168-12.063-2.119-12.596-1.262c-0.533,0.857,1.558,2.35,1.558,2.35s-2.773-0.491-3.043,0.352
					c-0.288,0.897,3.345,7.042,9.989,8.761c0.139,0.036,0.274,0.063,0.412,0.096c-0.371,0.287-0.741,0.586-1.109,0.903
					c-5.194,4.485-5.728,11.603-5.073,12.28c0.616,0.636,2.884-1.033,2.884-1.033s-1.213,2.265-0.356,2.797
					c0.858,0.532,8.163-1.91,10.732-6.713c0.368-0.688,0.678-1.352,0.948-1.99c0.068,0.434,0.146,0.872,0.238,1.316
					c1.394,6.719,7.355,10.646,8.265,10.403c0.855-0.229,0.5-3.023,0.5-3.023s1.389,2.161,2.271,1.67
					c0.882-0.491,2.299-8.062-0.65-12.642c-0.4-0.622-0.807-1.188-1.212-1.712c0.46-0.01,0.925-0.028,1.4-0.062
					C477.155,193.907,481.833,188.515,481.712,187.581z"/>
				<path style="fill:#FF8D95;" d="M464.289,190.844c-0.561,2.16-2.766,3.458-4.927,2.897c-2.161-0.561-3.458-2.766-2.897-4.927
					c0.56-2.16,2.766-3.458,4.927-2.897C463.552,186.478,464.849,188.684,464.289,190.844z"/>
			</g>
			<circle style="fill:#A1CEFF;" cx="430.299" cy="326.661" r="15.49"/>
			<circle style="fill:#A1CEFF;" cx="47.685" cy="221.656" r="15.49"/>
			<path style="fill:#A1CEFF;" d="M52.16,190.352c0,3.616-2.931,6.547-6.547,6.547s-6.547-2.931-6.547-6.547
				c0-3.616,2.931-6.547,6.547-6.547S52.16,186.737,52.16,190.352z"/>
			<circle style="fill:#A1CEFF;" cx="213.205" cy="153.411" r="7.461"/>
			<circle style="fill:#5085E2;" cx="366.34" cy="338.961" r="7.461"/>
			<path style="fill:#FFFFFF;" d="M173.972,275.245"/>
			<path style="fill:none;stroke:#A1CEFF;stroke-miterlimit:10;" d="M144.993,370.988"/>
		</g>
		<g>
			<path style="fill:#E5A993;" d="M396.401,314.057c-0.891,3.356-3.625,3.201-4.796,2.838c-0.363,0.332-0.818,0.694-1.253,0.849
				c-0.943,0.332-2.704,0.031-2.621-2.403c0.031-1.046-0.104-2.766-0.269-4.382c-1.046-3.315-2.134-8.038-2.931-12.503
				c-0.031-0.166-0.062-0.331-0.093-0.497c-0.186-0.984-0.404-1.875-0.632-2.683c-1.398-4.931-3.335-6.775-3.335-6.775
				l11.539-12.886c0,0,1.512,1.005,3.304,2.269c2.237,1.564,4.931,3.522,5.708,4.423c0.528,0.611,0.86,1.481,1.046,2.548
				C403.176,291.217,398.856,304.755,396.401,314.057z"/>
			<path style="fill:#D18C7C;" d="M402.067,284.856c-1.046,0.321-2.838,1.015-5.801,2.528c-4.33,2.206-9.54,7.914-11.83,10.576
				c-0.186-0.984-0.404-1.875-0.632-2.683l11.508-17.392c2.237,1.564,4.931,3.522,5.708,4.423
				C401.549,282.919,401.881,283.789,402.067,284.856z"/>
			<path style="fill:#FFC3A9;" d="M344.802,304.764l-17.069,2.777c0,0,0.49,3.757-3.103,10.29c-2.186,3.975-4.307,8.336-5.581,11.57
				c-0.882,1.359-1.855,2.783-2.545,3.579c-1.592,1.837-0.408,3.185,0.531,3.512c0.439,0.153,1.018,0.161,1.514,0.128
				c0.678,1.017,2.139,1.62,5.51,0.811c6.125-1.47,22.541-20.989,22.704-23.112C346.925,312.196,344.802,304.764,344.802,304.764z"
				/>
			<path style="fill:#29486D;" d="M396.992,278.879l-3.553,4.579l-15.973,20.572c0,0-20.5-9.965-28.662-27.606
				c-0.818-1.761-1.171-3.719-1.129-5.811c0.197-14.44,18.676-35.25,27.16-44.055c2.538-2.631,4.185-4.195,4.185-4.195
				s0.083,1.937,0.197,5.014c0.342,9.551,0.912,30.071-0.197,37.612L396.992,278.879z"/>
			<path style="fill:#234260;" d="M396.992,278.879l-3.553,4.579c-2.642-4.402-7.469-3.574-10.866-5.708
				c-3.657-2.3-2.331-8.018-6.547-7.023c-4.216,1.005-8.66,5.438-8.991,2.331c-0.331-3.108,5.998-7.655,5.293-9.209
				s-5.065-0.114-10.618,1.336c-5.552,1.44-11.767,10.431-11.767,10.431s-1.243-2.134-2.268-5.003
				c0.197-14.44,18.676-35.25,27.16-44.055c1.637-0.477,3.128-0.28,4.382,0.818c0.342,9.551,0.912,30.071-0.197,37.612
				L396.992,278.879z"/>
			<path style="fill:#355F9B;" d="M383.349,220.074c-5.148,19.598-30.133,48.271-30.133,48.271l3.429,36.504l-30.133,3.677
				c0,0-0.342-1.16-0.901-3.139c-1.554-5.48-4.755-17.216-6.723-27.637c-1.057-5.521-1.761-10.669-1.688-14.316
				c0.052-2.714,0.352-5.645,0.787-8.598c1.657-11.167,5.335-22.509,5.335-22.509l49.742-41.725c0,0,1.036,0.663,2.496,2.01
				c0,0,0.021,0.01,0.052,0.031C379.755,196.466,387.141,205.623,383.349,220.074z"/>
			<path style="fill:#FFC3A9;" d="M253.741,124.276c0,0-1.592,8.453,1.715,14.088c3.308,5.635,5.88,7.447,6.615,10.523
				c0.735,3.075-1.715,4.546-0.735,6.505c0.98,1.96,4.655,1.225,4.655,1.225s7.473,8.453,14.823,10.535
				c7.35,2.083,16.095-6.585,18.498-10.168c2.403-3.582,15.517-7.204,15.517-7.204l-5.471-7.741c0,0-1.96-22.663-17.028-29.278
				C277.262,106.145,257.783,112.76,253.741,124.276z"/>
			<path style="fill:#385E96;" d="M304.973,182.597c0,0-35.307,37.609-42.167,42.075l-14.21-11.949l12.985-20.336
				C261.581,192.388,300.099,164.965,304.973,182.597z"/>
			<path style="fill:#4570B4;" d="M377.466,191.163l-31.49,23.939l-3.211,2.445l-19.443,14.782l-23.514-49.732l-38.721,20.79
				l-12.493-22.271c0,0,3.47-2.352,9.064-5.78c0.984-0.611,2.041-1.243,3.149-1.906c9.861-5.904,24.374-13.901,38.43-19.132
				c2.393-0.901,4.786-1.709,7.127-2.424c10.918-3.294,21.018-4.34,27.74-0.704c3.242,1.751,6.433,3.802,9.509,6.039
				c1.927,1.388,3.802,2.849,5.635,4.34c3.232,2.652,6.298,5.428,9.136,8.173c0.756,0.735,1.502,1.46,2.227,2.186
				c1.637,1.647,3.19,3.263,4.651,4.817c0,0,0,0.01,0.01,0.01c0.362,0.394,0.704,0.767,1.067,1.15
				C373.188,185.362,377.466,191.163,377.466,191.163z"/>
			<path style="fill:#FFC3A9;" d="M329.111,169.979c-0.601,0.808-1.015,1.606-1.326,2.351c-0.01,0.104-0.901,10.877-12.057,24.467
				c0,0-12.327,40.336-23.701,56.724c-0.508,0.746-1.025,1.44-1.533,2.082l-2.32-2.496l-18.014-19.308c0,0,1.305-1.295,3.408-3.543
				c6.837-7.292,22.126-24.695,28.683-40.813c8.577-21.069,10.286-29.646,10.286-29.646s0.818-2.362,3.76-5.179
				c2.942-2.818,5.677-3.967,6.702-3.232c1.015,0.735-2.165,4.206-4.578,6.785c-1.523,1.626-2.206,3.346-2.517,4.392l0.684,0.559
				v-0.073c0,0,0.818-2.372,3.75-5.19c2.942-2.817,5.677-3.957,6.702-3.221c1.015,0.735-2.165,4.206-4.579,6.775
				c-1.554,1.657-2.237,3.418-2.527,4.454l0.777,0.642c0.259-0.622,1.233-2.631,3.677-4.972c2.932-2.818,5.677-3.957,6.692-3.221
				c1.026,0.735-2.165,4.206-4.568,6.774c-1.419,1.512-2.113,3.108-2.445,4.164l0.497,0.414c0.466-0.86,1.119-1.865,2.03-2.973
				c2.6-3.139,5.179-4.589,6.288-3.967C333.98,163.339,331.214,167.151,329.111,169.979z"/>
			<path style="fill:#E5A993;" d="M329.111,169.979c-0.601,0.808-1.015,1.606-1.326,2.351c-0.01,0.104-0.901,10.877-12.057,24.467
				c0,0-12.327,40.336-23.701,56.724c-1.305,0.114-2.59-0.041-3.853-0.414l-18.014-19.308c0,0,1.305-1.295,3.408-3.543
				c1.72,1.844,5.366,4.423,12.917,6.319c13.073,3.284,23.286-31.988,25.503-38.43c2.217-6.433,12.575-18.718,13.912-23.897
				c1.326-5.179,6.557-10.172,6.982-11.519C333.98,163.339,331.214,167.151,329.111,169.979z"/>
			<path style="fill:#FF6A6E;" d="M235.749,447.445c-12.575-3.211-30.941-9.292-51.907-20.634
				c-12.378-6.681-25.669-15.206-39.207-26.052c-0.124-3.957-0.352-8.08-0.704-12.285c-1.958-23.038-12.161-67.186-12.161-67.186
				l2.31-4.164l30.475-54.911l29.895,4.527c0,0,25.648,11.488,40.181,47.246c0.404,0.995,0.787,2.041,1.139,3.139
				c0.29,0.87,0.559,1.761,0.808,2.693C245.61,352.405,238.722,421.932,235.749,447.445z"/>
			<path style="fill:#FFC3A9;" d="M219.934,209.904c-0.252,2.698-4.048,6.986-4.048,6.986s4.048,24.868,0,30.619
				c-2.698,3.853-7.375,2.938-12.44,2.87c-1.052-0.023-2.127,0-3.213,0.103c-1.486,0.149-2.973,0.457-4.436,1.075
				c-4.23,1.772-4.162,6.289-3.27,9.936c0.091,0.389,0.194,0.766,0.309,1.132c0.697,2.355,1.612,4.128,1.612,4.128l-24.868-1.349
				c0,0,1.589-18.866-1.349-24.137c0,0-11.262-3.796-11.262-14.704c0-10.896,9.307-13.72,9.307-13.72s-2.367-14.978,10.611-25.76
				c11.982-9.947,24.674-1.223,26.297,5.717c0.8,3.396-0.4,7.923,7.192,11.96C217.967,208.806,220.174,207.206,219.934,209.904z"/>
			<path style="fill:#C15662;" d="M236.578,319.817c-4.941,6.878-19.598,24.923-40.595,30.154
				c-26.125,6.516-25.669,22.789-19.536,29.895c6.132,7.106,6.681,20.044,2.113,28.082c-2.776,4.879,1.502,13.145,5.283,18.863
				c-12.378-6.681-25.669-15.206-39.207-26.052c-0.124-3.957-0.352-8.08-0.704-12.285c-1.958-23.038-12.161-67.186-12.161-67.186
				l2.31-4.164H235.77C236.06,317.994,236.329,318.884,236.578,319.817z"/>
			<path style="fill:#29486D;" d="M213.343,206.188c0,0-0.041-0.01-0.114-0.021h-0.01c-0.818-0.155-5.345-1.202-8.173-5.956
				c-3.118-5.252-1.947-13.301-11.156-16.615c0,0,0,0.01,0.01,0.031c0.093,0.373,0.891,3.947-1.668,10.224
				c-0.839,2.082-2.051,4.465-3.771,7.116c-7.241,11.146-14.098,13.104-14.098,13.104s4.413,7.106,2.693,11.519
				c-1.709,4.402-5.148-11.767-13.352-8.328c-8.214,3.429-5.117,14.233-1.844,18.366c0.28,0.363,0.601,0.673,0.943,0.953
				c3.657,3.087,10.462,2.569,10.462,3.584c0,1.098,3.905,20.583-6.619,33.686c0,0-2.082,68.73-38.596,81.232
				c-36.504,12.482-48.261-6.132-51.938-13.974c-0.994-2.134-1.719-4.755-2.03-7.676c-0.321-2.952-0.218-6.184,0.445-9.447
				c0.673-3.242,1.896-6.505,3.833-9.54c1.295-2.02,2.9-3.936,4.858-5.676c0,0-8.111-3.242-10.379-16.833
				c-0.653-3.915-0.818-8.712-0.155-14.523c0.197-1.72,0.508-3.315,0.943-4.786c1.202-4.185,3.263-7.469,5.853-10.296
				c8.121-8.888,21.349-13.269,28.942-26.705c2.051-3.626,3.667-7.893,4.693-13.104c1.533-7.842,1.005-17.889,3.781-28.01
				c3.087-11.218,10.245-22.53,28.797-31.045c4.278-1.947,8.411-3.387,12.379-4.371c28.693-7.199,48.686,9.23,54.383,22.271
				c0.725,1.647,1.295,3.242,1.74,4.765C217.776,198.284,213.343,206.188,213.343,206.188z"/>
			<path style="fill:#FF8D95;" d="M289.096,260.296c-8.629,13.145-39.58,57.325-73.505,69.786
				c-40.005,14.699-61.075,8.08-65.736-8.577c-4.475-16.046,5.355-45.267,20.748-45.215c0.59,0,1.181,0.042,1.792,0.135
				c0,0,2.414-0.062,6.588-0.559h0.01c10.421-1.222,31.863-5.138,54.414-17.558c20.593-11.343,29.532-19.246,33.261-23.379
				c0.073-2.434,0.518-7.842,3.118-8.546c1.284-0.352,1.947,0.445,2.268,1.575c0.539,1.823,0.186,4.485,0.186,4.485
				s3.367-3.667,7.158-2.32c3.802,1.347,0.86,8.753,0.86,8.753s3.677-2.88,6.806-0.549c3.118,2.331,0,8.328,0,8.328
				s4.102-2.32,6.609,0c0.943,0.87,1.046,1.906,0.798,2.869c-0.404,1.616-1.771,3.014-1.771,3.014s3.853,0.062,4.402,3.004
				C297.518,257.748,291.893,259.55,289.096,260.296z"/>
			<path style="fill:#F27985;" d="M297.103,255.541c-0.549-2.942-4.402-3.004-4.402-3.004s1.367-1.398,1.771-3.014
				c-1.8,0.775-3.935,2.038-5.698,3.997c-0.934-0.496-2.286-1.285-3.426-2.223c0.778-1.462,1.907-3.327,1.058-3.54
				c-0.618-0.155-1.786,0.861-2.701,1.791c-0.006-0.009-0.013-0.017-0.019-0.026c-1.554-2.452-1.776-3.43-3.884-4.318
				c-0.624-0.263-1.237-0.644-1.85-1.105c0.725-1.493,2.315-3.87,1.351-4.111c-0.757-0.189-2.339,1.376-3.269,2.391
				c-0.832-0.857-1.677-1.848-2.557-2.951c-0.384-0.48-0.801-0.91-1.229-1.287c0.134-1.584,1.031-4.714-0.022-4.625
				c-0.752,0.064-1.702,1.93-2.262,3.194c-1.175-0.424-2.09-0.197-2.147,0.947c-0.111,2.22,3.219,1.887,3.663,3.884
				c0.444,1.998,0.666,2.664,3.441,4.439c2.775,1.776,2.775,0.999,4.328,4.106c1.554,3.108,3.441,1.221,4.106,3.884
				c0.373,1.493,1.164,3.403,1.788,4.794c-2.724,4.329-5.664,8.786-11.408,10.116c-7.696,1.771-7.106,3.843-20.469,22.634
				c-13.363,18.78-22.147,12.285-31.915,21.763c-9.768,9.468-29.895,15.683-45.578-3.263c-10.048-12.13-7.955-25.607-5.169-33.728
				c-15.393-0.052-25.223,29.17-20.748,45.215c4.661,16.657,25.731,23.276,65.736,8.577c33.924-12.462,64.876-56.641,73.505-69.786
				C291.893,259.55,297.518,257.748,297.103,255.541z"/>
			<path style="fill:#FFC3A9;" d="M251.291,184.956c0,0-9.31,3.103-14.782,4.247c-5.472,1.143-11.27,3.839-12.005,5.635
				c-0.735,1.797,0.653,1.878,3.757,0.898c3.103-0.98,5.798-0.572,5.798-0.572s-3.43,1.797-5.145,4.737
				c-1.715,2.94-2.123,5.472-0.572,5.799c1.552,0.327,3.022-1.96,3.022-1.96s-0.653,3.512,1.388,3.757
				c2.042,0.245,3.512-3.566,3.92-4.111c0.408-0.545,2.613-1.851,2.613-1.851s-1.745,3.453-1.485,5.973s2.628,1.459,3.69-0.746
				c1.062-2.205,1.633-2.94,1.633-2.94s3.185-0.49,8.167-2.613s5.93-4.719,5.93-4.719L251.291,184.956z"/>
			<path style="fill:#E5A993;" d="M249.796,213.732c0,0-5.856,4.626-8.306,5.483c-2.45,0.857-13.659,9.004-13.965,10.474
				c-0.306,1.47,2.083,1.47,4.655,0.49c2.573-0.98,4.961-2.511,6.003-2.695c0,0-1.715,3.001-2.205,5.758
				c-0.49,2.756-0.306,5.574,0.919,5.635c1.225,0.061,2.45-3.859,2.45-3.859s-0.837,4.471,1.419,4.41
				c2.256-0.061,2.317-4.41,2.624-5.329c0.306-0.919,1.225-2.756,1.225-2.756s0.184,3.001,1.041,4.655
				c0.857,1.654,2.695,1.409,2.94-0.306c0.245-1.715,0.184-3.798,0.306-4.471c0,0,5.206-2.45,7.595-3.92
				c2.389-1.47,3.81-4.731,3.81-4.731L249.796,213.732z"/>
			<path style="fill:#29486D;" d="M318.017,127.379c0.653,7.686-2.942,20.013-4.983,19.868c-2.041-0.155-3.025-1.564-3.025-1.564
				s-1.139,1.709-4.734,0.974c-3.594-0.735-4.578-2.693-4.578-2.693c2.289-0.901,4.744-9.147,2.776-13.642
				c-0.715-1.626-1.564-2.973-2.559-3.916c-1.74-1.678-3.936-2.113-6.588-0.653c-1.999,1.098-2.082,3.522-1.626,5.739
				c0.497,2.393,1.626,4.548,1.626,4.548s-4.9-0.404-8.245-4.485c-3.346-4.092-4.081-11.032-4.081-11.032s-1.885,2.621-7.023,4.33
				c-5.148,1.719-11.602,0.653-11.602,0.653l0.01,0.01c0.041,0.031,0.238,0.186,0.829,0.445c0.01,0.01,0.021,0.01,0.031,0.021
				c0.704,0.321,1.947,0.787,4.112,1.398c4.33,1.233,9.716-0.073,9.633,0.694c-0.072,0.777-6.774,3.553-14.937,1.761
				c-8.007-1.761-8.09-3.439-8.09-3.512c-2.124,6.37,2.973,15.849,2.973,15.849s-5.832-1.554-8.194-9.312
				c-1.688-5.511-0.238-10.7,0.746-13.238c0.394-1.036,0.715-1.626,0.715-1.626c0.01-0.021,0.01-0.052,0.021-0.073
				c2.714-11.322,10.877-21.256,26.197-25.006c15.362-3.75,25.161,3.843,25.161,3.843c2.124-0.414,4.983-2.206,4.983-2.206
				c1.222,2.693-0.901,4.651-0.901,4.651c2.124-0.155,4.651-2.196,4.651-2.196c1.222,2.859-2.041,5.552-2.041,5.552
				s2.144,0.497,4.465,2.559c1.471,1.326,3.014,3.273,4.123,6.132c0.083,0.197,0.155,0.404,0.228,0.611
				c0.736,2.092,1.067,4.164,1.171,6.07C319.56,123.267,318.017,127.379,318.017,127.379z"/>
			<path style="fill:#FFFFFF;" d="M213.56,224.075c0,0-5.309,2.695-9.31,4.165c-4.002,1.47,3.871,7.247,6.779,6.779
				C215.593,234.284,213.56,224.075,213.56,224.075z"/>
			<path style="fill:#FFFFFF;" d="M272.055,157.964l8.453-5.574c0,0,1.531,5.145-0.857,7.534
				C277.262,162.313,272.055,157.964,272.055,157.964z"/>
			<path style="fill:#1E3D5B;" d="M166.641,273.853c0,0-2.081,68.728-38.589,81.225c-36.508,12.486-48.262-6.128-51.943-13.972
				c-0.995-2.127-1.715-4.756-2.024-7.672c4.894,3.785,12.829,7.409,24.674,6.128c22.787-2.447,20.821-8.815,25.726-19.357
				c4.894-10.53,12.737-5.385,15.435-16.659c2.687-11.262-3.258-22.044,4.002-29.648c7.26-7.592,14.864-6.609,18.294-17.15
				c3.144-9.65-1.944-14.612,0.583-20.169c3.659,3.087,10.462,2.572,10.462,3.59C173.261,241.267,177.172,260.75,166.641,273.853z"
				/>
			<path style="fill:#1E3D5B;" d="M112.972,294.399c-11.113,10.462-17.848,14.372-29.75,14.372c0,0-8.118-3.247-10.382-16.83
				c2.916,2.39,7.295,4.733,12.691,3.773c10.119-1.807,6.037-8.004,15.675-8.004c9.639,0,10.29-0.114,11.594-5.442
				c1.315-5.339,6.369-8.449,9.97-7.958C126.36,274.802,124.074,283.948,112.972,294.399z"/>
			<path style="fill:#1E3D5B;" d="M213.222,206.165c-0.823-0.149-5.351-1.201-8.175-5.957c-3.121-5.248-1.944-13.297-11.159-16.613
				c0,0-2.401-4.391-6.071-7.077c-3.67-2.698,4.162-2.95,10.29,1.223c6.128,4.162,4.654,7.718,8.449,8.575
				c3.796,0.858,4.539,3.922,3.922,8.575c-0.606,4.654-2.435,4.894,0.194,6.494C212.502,202.495,213.062,204.839,213.222,206.165z"
				/>
			<path style="fill:#1E3D5B;" d="M137.345,172.715c0,0,5.88-6.125,21.438-6.125c15.558,0,25.113,5.758,25.603,3.92
				c0.49-1.837-14.21-8.453-25.358-7.473C147.88,164.018,139.918,169.53,137.345,172.715z"/>
			<path style="fill:#1E3D5B;" d="M130.117,229.561c-10.424,1.736-16.448,4.56-21.696,6.069c2.047-3.624,3.67-7.901,4.688-13.103
				c1.532-7.843,1.006-17.894,3.785-28.012c0.469,0.114,1.006,0.4,1.624,0.903c3.602,2.938,4.745,16.373,10.13,18.317
				c5.385,1.944,7.02-1.452,11.102,0c4.093,1.452,4.253,5.202,7.523,4.711c3.259-0.48,5.545-0.48,6.197,2.458
				C154.133,223.842,148.002,226.581,130.117,229.561z"/>
			<path style="fill:#365B7F;" d="M192.23,193.851c-4.036,0.709-7.741-2.584-11.274-2.275c-4.162,0.377-6.369,5.271-12.371,2.927
				c-6.003-2.332-5.637-3.659-15.687-0.72c-10.039,2.938-17.757-4.036-17.757-4.036c-0.629-0.515-1.475-2.207,0.492-1.967
				c1.955,0.251,3.796,2.332,8.289,3.43c4.505,1.109,8.861-3.064,14.006-3.67c5.145-0.617,5.877,1.464,10.29,1.829
				c4.402,0.354,7.466-6.849,13.355-3.67c5.877,3.19,12.314-2.104,12.314-2.104s0,0.012,0.011,0.034
				C193.991,183.995,194.791,187.574,192.23,193.851z"/>
			<path style="fill:#365B7F;" d="M214.194,186.133c-3.236-5.282-10.313-14.189-23.805-20.764
				c-13.961-6.814-26.057-6.906-32.323-6.277c28.699-7.192,48.684,9.238,54.39,22.273
				C213.176,183.012,213.748,184.613,214.194,186.133z"/>
			<path style="fill:#E5A993;" d="M200.233,250.482c-1.486,0.149-2.973,0.457-4.436,1.075c-4.23,1.772-4.162,6.289-3.27,9.936
				c0.091,0.389,0.194,0.766,0.309,1.132c-2.287-2.435-5.957-6.826-8.575-12.12C181.105,244.079,187.988,249.064,200.233,250.482z"
				/>
			<path style="fill:#DCDB22;" d="M267.519,181.053c0,0-6.505,3.553-8.95-0.736c-1.098-1.927-1.243-3.594-0.912-4.982
				c0.984-0.611,2.041-1.243,3.149-1.906c-0.207,1.16-0.207,2.517,0.352,3.812C262.288,179.892,267.519,181.053,267.519,181.053z"/>
			<path style="fill:#DCDB22;" d="M296.969,174.261c2.442,4.292,8.953,0.74,8.953,0.74s-5.228-1.162-6.363-3.816
				c-1.406-3.287,0.74-6.912,0.74-6.912S293.279,167.776,296.969,174.261z"/>
			<path style="fill:#DCDB22;" d="M327.712,195.016c2.442,4.291,8.953,0.74,8.953,0.74s-5.228-1.162-6.363-3.816
				c-1.406-3.287,0.74-6.912,0.74-6.912S324.022,188.53,327.712,195.016z"/>
			<path style="fill:#DCDB22;" d="M345.975,215.101l-3.211,2.445c-0.673-0.321-1.274-0.839-1.73-1.647
				c-3.605-6.329,2.983-9.81,3.315-9.975c-0.093,0.155-2.103,3.688-0.725,6.899C344.028,213.765,344.95,214.521,345.975,215.101z"/>
			<path style="fill:#DCDB22;" d="M366.34,177.883c-1.947,0.798-6.06,1.989-7.883-1.222c-1.678-2.942-1.15-5.273-0.073-6.94
				c0.756,0.735,1.502,1.46,2.227,2.186c0.062,0.559,0.197,1.129,0.435,1.678c0.642,1.512,2.631,2.538,4.216,3.139
				c0,0,0,0.01,0.01,0.01C365.636,177.127,365.978,177.499,366.34,177.883z"/>
			<polygon style="fill:#DCDB22;" points="285.352,186.013 281.455,183.334 277.038,185.026 278.382,180.491 275.408,176.814 
				280.136,176.69 282.714,172.725 284.293,177.184 288.86,178.411 285.108,181.29 			"/>
			<path style="fill:#DCDB22;" d="M306.53,155.809l0.238,4.723l-3.895-2.683l-4.413,1.688l1.347-4.537l-0.57-0.704
				c2.393-0.901,4.786-1.709,7.127-2.424l3.916,1.057L306.53,155.809z"/>
			<polygon style="fill:#DCDB22;" points="357.16,195.376 353.262,192.697 348.846,194.389 350.189,189.855 347.216,186.177 
				351.943,186.054 354.522,182.089 356.1,186.547 360.668,187.775 356.915,190.653 			"/>
			<polygon style="fill:#DCDB22;" points="327.638,218.018 323.74,215.339 319.324,217.03 320.667,212.496 317.693,208.818 
				322.421,208.695 325,204.73 326.578,209.188 331.146,210.416 327.393,213.294 			"/>
			<path style="fill:#DCDB22;" d="M348.927,161.796l0.238,4.723l-3.895-2.683l-4.413,1.699l1.336-4.537l-2.973-3.677l4.392-0.114
				c1.927,1.388,3.802,2.849,5.635,4.34L348.927,161.796z"/>
			<circle style="fill:#DCDB22;" cx="284.976" cy="165.783" r="1.51"/>
			<path style="fill:#DCDB22;" d="M266.398,192.115c0,0.834-0.676,1.51-1.51,1.51c-0.834,0-1.51-0.676-1.51-1.51
				c0-0.834,0.676-1.51,1.51-1.51C265.722,190.605,266.398,191.281,266.398,192.115z"/>
			<circle style="fill:#DCDB22;" cx="339.225" cy="178.797" r="1.51"/>
			<path style="fill:#DCDB22;" d="M368.918,187.937c0,0.834-0.676,1.51-1.51,1.51c-0.834,0-1.51-0.676-1.51-1.51
				c0-0.834,0.676-1.51,1.51-1.51C368.241,186.426,368.918,187.102,368.918,187.937z"/>
			<circle style="fill:#DCDB22;" cx="331.616" cy="154.743" r="1.51"/>
			<path style="fill:#1E3D5B;" d="M318.017,127.374c0.653,7.686-2.942,20.013-4.983,19.868c-2.041-0.155-3.025-1.564-3.025-1.564
				s-1.139,1.709-4.734,0.974c-3.595-0.736-4.579-2.693-4.579-2.693c2.289-0.901,4.744-9.147,2.776-13.642
				c-0.715-1.626-1.564-2.973-2.559-3.916c0.673-3.833,3.408-5.086,5.967-5.5c2.776-0.445,0.445-3.698,6.153-2.59
				c2.548,0.497,4.672,0.155,6.226-0.383C319.561,123.262,318.017,127.374,318.017,127.374z"/>
			<path style="fill:#1E3D5B;" d="M307.438,103.255c0,0-7.658,1.332-10.433,1.332c-2.775,0,3.219,4.106,6.548,2.331
				C306.883,105.142,307.438,103.255,307.438,103.255z"/>
			<path style="fill:#1E3D5B;" d="M277.992,128.068c-0.073,0.777-6.775,3.553-14.937,1.761c-8.007-1.761-8.09-3.439-8.09-3.512
				c-2.123,6.371,2.973,15.849,2.973,15.849s-5.832-1.554-8.194-9.312c-1.688-5.511-0.238-10.701,0.746-13.238
				c0.166,3.273,0.176,8.701,1.119,10.991c1.668,4.061,0.891-4.713,2.776-6.93c1.885-2.217,4.661,2.445,8.442,3.107
				c2.776,0.487,2.237-0.249,1.419-0.808c0.704,0.321,1.947,0.787,4.112,1.398C272.688,128.607,278.074,127.302,277.992,128.068z"/>
			<path style="fill:#1E3D5B;" d="M294.327,136.034c0,0-4.9-0.404-8.245-4.485c-3.346-4.092-4.081-11.032-4.081-11.032
				s-1.885,2.621-7.023,4.33c-5.148,1.719-11.602,0.653-11.602,0.653s-1.668-0.269-2.994-2.486
				c-1.336-2.227,2.103,0.414,11.094-3.46c8.991-3.864,11.104-2.31,12.658-2.869c1.554-0.559-0.114,3.108,1.222,6.992
				c1.057,3.087,5.542,6.516,7.344,7.81C293.198,133.879,294.327,136.034,294.327,136.034z"/>
			<path style="fill:#FFAEB6;" d="M272.056,227.956c-0.404-0.166-1.036-0.249-1.896,0.104c-1.699,0.684-1.119,2.776-2.289,6.215
				c-1.16,3.439-0.28,1.885-3.491,5.159c-3.222,3.263-24.529,22.053-35.634,24.56c-11.094,2.517-14.202,9.178-31.221,11.84
				c-9.364,1.461-15.186,0.87-18.532,0.031c10.421-1.222,31.863-5.138,54.414-17.558c20.593-11.343,29.532-19.246,33.261-23.379
				c0.073-2.434,0.518-7.842,3.118-8.546C271.072,226.03,271.735,226.827,272.056,227.956z"/>
			<path style="fill:#E5A993;" d="M162.436,223.174c0,0,0.999-1.831,4.051-1.498c3.052,0.333,3.829,3.219,4.273,5.105
				c0.444,1.887-1.554,1.942-1.221,4.439c0.333,2.497,2.331,2.719,2.664,3.551c0.333,0.832-1.998,1.387-4.162,0.388
				c-2.164-0.999-1.276-4.55-0.277-5.993c0.999-1.443,0.777-3.602-1.165-4.492c-1.942-0.89-2.941,4.381-4.162,4.27
				C161.215,228.835,160.993,225.783,162.436,223.174z"/>
			<path style="fill:#E5A993;" d="M299.814,128.408c0,0-1.35-0.971-3.428,0.323c-2.078,1.293-1.639,3.635-1.306,5.143
				c0.333,1.509,1.787,0.859,2.41,2.768c0.623,1.909-0.735,2.758-0.687,3.471c0.048,0.713,1.914,0.307,3.124-1.158
				c1.21-1.465-0.655-3.71-1.871-4.401c-1.216-0.691-1.802-2.319-0.715-3.63c1.088-1.311,3.626,2.132,4.465,1.63
				C302.646,132.052,301.752,129.783,299.814,128.408z"/>
			<path style="fill:#E5A993;" d="M219.951,209.357c0,0-7.627,6.16-8.793,6.77c-1.165,0.611,2.685,2.026,4.728,0.763
				C217.929,215.627,219.865,211.41,219.951,209.357z"/>
			<path style="fill:#FFFFFF;" d="M201.223,209.357c0.3,4.775-10.151,1.947-10.151,1.947s0.839-6.226,3.449-9.064
				c0.642-0.704,1.378-1.191,2.248-1.336c0.373-0.062,0.766-0.052,1.181,0.021c0,0,1.792,2.206,2.735,5.417
				c0.197,0.663,0.352,1.367,0.456,2.113C201.172,208.757,201.203,209.057,201.223,209.357z"/>
			<path style="fill:#29486D;" d="M201.141,208.451c-0.373,1.284-1.15,2.227-2.196,2.465c-1.906,0.425-3.988-1.595-4.651-4.527
				c-0.352-1.543-0.238-3.035,0.228-4.154c0.912-0.994,2.041-1.574,3.429-1.316C197.95,200.92,200.561,204.132,201.141,208.451z"/>
			<path style="fill:#1E3D5B;" d="M197.951,200.922c0,0-1.998-0.832-4.217,2.886s-2.664,7.492-2.664,7.492s-1.11-2.386,0.333-6.937
				c1.443-4.55,3.331-5.105,4.579-5.105s2.247-1.554,2.247-1.554S199.172,200.034,197.951,200.922z"/>
			<ellipse style="fill:#E5A993;" cx="187.075" cy="220.736" rx="4.791" ry="3.339"/>
			<path style="fill:#E5A993;" d="M287.614,137.16c0.922,1.597-0.188,3.964-2.48,5.287c-2.291,1.323-4.896,1.101-5.818-0.496
				c-0.922-1.597,0.188-3.964,2.48-5.287C284.087,135.34,286.692,135.563,287.614,137.16z"/>
			<path style="fill:#29486D;" d="M265.597,144.356c0,0-0.814-0.962,1.11-3.773c1.924-2.812,6.511-1.702,7.029-2.886
				c0.518-1.184-4.069-1.702-6.659-0.296C264.487,138.807,263.969,142.581,265.597,144.356z"/>
			<path style="fill:#29486D;" d="M260.75,138.215c0,0,0.185-3.441,2.442-4.587c2.257-1.147,3.514-0.925,3.514-0.925
				s-2.442-1.292-4.624-0.017C259.9,133.961,260.75,138.215,260.75,138.215z"/>
			<path style="fill:#2E5687;" d="M383.349,220.074c-5.148,19.598-30.133,48.271-30.133,48.271l3.429,36.504l-30.133,3.677
				c0,0-0.342-1.16-0.901-3.139c2.082-1.108,6.184-2.818,11.757-2.911c8.287-0.155,8.587,0,11.094-4.444
				c2.517-4.434-3.077-9.178-0.798-14.357c2.279-5.179,0.953-8.877,0.653-10.794c-0.29-1.927-5.469-0.3-9.323-3.408
				c-3.843-3.108,5.324-2.217,13.176-7.986c7.841-5.78,11.094-24.571,18.2-32.267c7.096-7.697,2.217-15.683-0.746-19.236
				c-2.952-3.553-14.492-1.844-14.492-1.844l20.427-15.528c0,0,0.021,0.01,0.052,0.031
				C379.755,196.466,387.141,205.623,383.349,220.074z"/>
			<path style="fill:#2E5687;" d="M329.381,266.294c0,6.143-4.651,11.167-10.493,11.457c-1.057-5.521-1.761-10.669-1.688-14.316
				c0.052-2.714,0.352-5.645,0.787-8.598c0.124-0.01,0.238-0.01,0.363-0.01C324.44,254.827,329.381,259.954,329.381,266.294z"/>
			<path style="fill:#E5A993;" d="M326.75,313.129c0,0,3.219-1.555,10.544-1.666c7.325-0.111,8.691-2.117,8.691-2.117l-0.777-3.102
				l-17.459,2.131C327.748,308.375,326.958,312.55,326.75,313.129z"/>
			<path style="fill:#365B7F;" d="M136.036,244.276c0,2.517-5.324,3.108-6.806,5.034c-1.481,1.927-1.771,5.625-7.106,6.661
				c-5.324,1.036-5.915,0.736-9.613,4.444c-3.698,3.698-7.551,4.734-13.922,4.734c-6.371,0-5.915,2.362-13.456,6.36
				c-4.599,2.434-8.877,1.906-11.508,1.119c1.202-4.185,3.263-7.469,5.853-10.296c4.268,0.352,12.689-2.807,14.979-4.03
				c2.807-1.512,9.022,0.041,11.985-1.595c2.963-1.626,5.77-3.843,9.913-4.434c4.144-0.59,7.551-1.927,10.804-5.48
				C130.412,243.24,136.036,241.769,136.036,244.276z"/>
			<path style="fill:#365B7F;" d="M117.774,311.276c-1.688,5.221-6.485,10.151-11.55,10.555c-5.076,0.414-4.237,2.134-14.388,4.672
				c-6.329,1.585-13.114-0.632-17.309-2.517c0.673-3.242,1.896-6.505,3.833-9.54c2.496,1.088,5.438,3.066,8.97,4.661
				c5.78,2.621,6.06,0.062,10.711-1.978c4.651-2.051,6.764,1.057,10.711-2.186C112.709,311.701,119.473,306.065,117.774,311.276z"/>
			<path style="fill:#365B7F;" d="M317.862,111.251c-2.175,1.585-5.438,3.449-7.862,2.59c-3.988-1.409-3.636-0.145-5.563,1.554
				c-1.916,1.699-5.987,2.662-8.142,0.373c-2.155-2.3-5.842-0.663-5.842-1.782c0-1.108,1.481-2.144,4.962-1.326
				c3.48,0.808,5.252,1.253,7.106-1.264c1.844-2.507,4.434-1.036,8.132-2.88c2.103-1.057,2.838-2.413,3.087-3.398
				C315.21,106.444,316.753,108.392,317.862,111.251z"/>
			<path style="fill:#365B7F;" d="M307.565,94.553c0,0-1.129,3.377-5.697,3.377c-4.578,0-5.79-1.409-15.559-3.253
				c-9.768-1.854-16.936,2.662-24.56,9.841c-7.624,7.168-7.624,15.61-9.033,15.756c-1.16,0.124-1.44-1.72-1.492-2.352
				c2.714-11.322,10.877-21.256,26.197-25.006c15.362-3.75,25.161,3.843,25.161,3.843C304.706,96.345,307.565,94.553,307.565,94.553
				z"/>
			<path style="fill:#1E3D5B;" d="M197.948,200.925c-0.414-0.072-0.807-0.083-1.179-0.021c0.031-0.021,0.062-0.041,0.104-0.052
				C197.203,200.725,197.573,200.769,197.948,200.925z"/>
			<polygon style="fill:#1E3D5B;" points="197.951,200.926 197.948,200.925 197.95,200.925 			"/>
			<path style="fill:#1E3D5B;" d="M200.685,206.343c-0.072,0.901-0.425,1.575-1.025,1.802c-1.108,0.425-2.631-0.86-3.398-2.88
				c-0.746-1.947-0.518-3.853,0.508-4.361c0.373-0.062,0.766-0.052,1.181,0.021C197.95,200.925,199.742,203.132,200.685,206.343z"/>
			<path style="fill:#365B7F;" d="M196.763,204.485c0.218,0.608,0.033,1.231-0.414,1.391c-0.446,0.16-0.985-0.203-1.203-0.811
				c-0.218-0.608-0.033-1.231,0.414-1.391C196.007,203.514,196.546,203.877,196.763,204.485z"/>
		</g>
		<g>
			<g>
				<path style="fill:#355F9B;" d="M253.442,450.543c0,0,18.992-20.662,40.587-29.873c21.595-9.211,31.01,1.813,42.813,8.662
					c11.803,6.849,14.764-5.635,29.772,0.45c15.007,6.085,8.274,18.529,28.326,18.791c0,0-21.136,25.862-41.656,19.866
					c-20.52-5.997-21.914,5.998-45.573,9.292C271.39,482.787,253.442,450.543,253.442,450.543z"/>
				<path style="fill:none;stroke:#5085E2;stroke-miterlimit:10;" d="M394.94,448.574c0,0-10.347,8.899-22.335,1.484
					c-11.988-7.415-18.142-10.831-28.819-6.089s-15.729-4.846-30.72-4.82c-14.991,0.027-49.499,12.833-49.499,12.833"/>
				<polyline style="fill:none;stroke:#5085E2;stroke-miterlimit:10;" points="377.972,463.331 365.544,445.853 377.827,439.771 
									"/>
				<polyline style="fill:none;stroke:#5085E2;stroke-miterlimit:10;" points="361.085,469.299 345.544,443.25 356.926,428.148 				
					"/>
				<polyline style="fill:none;stroke:#5085E2;stroke-miterlimit:10;" points="337.163,467.565 320.462,439.972 332.709,426.753 
									"/>
				<polyline style="fill:none;stroke:#5085E2;stroke-miterlimit:10;" points="322.076,473.987 299.791,440.995 313.503,417.491 
									"/>
				<polyline style="fill:none;stroke:#5085E2;stroke-miterlimit:10;" points="301.611,478.243 281.161,446.049 286.004,424.645 
									"/>
			</g>
			<g>
				<path style="fill:#638CC9;" d="M246.742,452.011c0,0,31.053-2.514,63.525-25.754c32.472-23.24,37.242-54.526,37.242-54.526
					s-9.433,6.47-30.511,14.873C282.612,400.311,252.448,429.734,246.742,452.011z"/>
				<path style="fill:none;stroke:#A1CEFF;stroke-linecap:round;stroke-linejoin:round;stroke-miterlimit:10;" d="M347.508,371.731
					c-8.584,16.869-38.783,31.936-66.328,49.14c-27.545,17.204-34.439,31.141-34.439,31.141"/>
				<path style="fill:none;stroke:#A1CEFF;stroke-linecap:round;stroke-linejoin:round;stroke-miterlimit:10;" d="M336.211,398.961
					c0,0-10.803,2.899-22.614,2.261"/>
				<path style="fill:none;stroke:#A1CEFF;stroke-linecap:round;stroke-linejoin:round;stroke-miterlimit:10;" d="M330.393,380.856
					c0,0-2.924,5.915-2.447,10.824"/>
				<path style="fill:none;stroke:#A1CEFF;stroke-linecap:round;stroke-linejoin:round;stroke-miterlimit:10;" d="M304.532,392.336
					c0,0-8.439,8.019-8.404,19.454"/>
				<path style="fill:none;stroke:#A1CEFF;stroke-linecap:round;stroke-linejoin:round;stroke-miterlimit:10;" d="M312.015,424.977
					c0,0-23.177,4.341-30.835-4.106"/>
				<path style="fill:none;stroke:#A1CEFF;stroke-linecap:round;stroke-linejoin:round;stroke-miterlimit:10;" d="M271.123,416.089
					c0,0-4.191,8.652-3.338,14.035"/>
				<path style="fill:none;stroke:#A1CEFF;stroke-linecap:round;stroke-linejoin:round;stroke-miterlimit:10;" d="M284.529,440.866
					c0,0-20.792,0.468-24.149-4.608"/>
			</g>
			<g>
				<path style="fill:#355F9B;" d="M247.195,446.704c0,0-18.992-20.662-40.587-29.873c-21.595-9.211-31.011,1.813-42.813,8.662
					c-11.802,6.849-14.764-5.635-29.771,0.45c-15.007,6.085-8.274,18.529-28.326,18.791c0,0,21.136,25.862,41.656,19.865
					c20.52-5.997,21.914,5.998,45.573,9.292C229.247,478.948,247.195,446.704,247.195,446.704z"/>
				<path style="fill:none;stroke:#5085E2;stroke-miterlimit:10;" d="M105.697,444.734c0,0,10.347,8.899,22.335,1.484
					c11.988-7.415,18.142-10.831,28.819-6.089c10.677,4.742,15.729-4.846,30.72-4.82c14.991,0.027,49.499,12.833,49.499,12.833"/>
				<polyline style="fill:none;stroke:#5085E2;stroke-miterlimit:10;" points="122.665,459.492 135.094,442.013 122.81,435.931 				
					"/>
				<polyline style="fill:none;stroke:#5085E2;stroke-miterlimit:10;" points="139.553,465.46 155.094,439.411 143.712,424.309 				
					"/>
				<polyline style="fill:none;stroke:#5085E2;stroke-miterlimit:10;" points="163.474,463.726 180.175,436.133 167.928,422.913 
									"/>
				<polyline style="fill:none;stroke:#5085E2;stroke-miterlimit:10;" points="178.561,470.147 200.847,437.156 187.135,413.651 
									"/>
				<polyline style="fill:none;stroke:#5085E2;stroke-miterlimit:10;" points="199.026,474.404 219.477,442.21 214.634,420.805 				
					"/>
			</g>
			<g>
				<path style="fill:#638CC9;" d="M258.637,452.011c0,0-31.053-2.514-63.525-25.754c-32.472-23.24-37.242-54.526-37.242-54.526
					s9.433,6.47,30.511,14.873C222.767,400.311,252.931,429.734,258.637,452.011z"/>
				<path style="fill:none;stroke:#A1CEFF;stroke-linecap:round;stroke-linejoin:round;stroke-miterlimit:10;" d="M157.871,371.731
					c8.584,16.869,38.783,31.936,66.328,49.14c27.545,17.204,34.439,31.141,34.439,31.141"/>
				<path style="fill:none;stroke:#A1CEFF;stroke-linecap:round;stroke-linejoin:round;stroke-miterlimit:10;" d="M169.168,398.961
					c0,0,10.803,2.899,22.614,2.261"/>
				<path style="fill:none;stroke:#A1CEFF;stroke-linecap:round;stroke-linejoin:round;stroke-miterlimit:10;" d="M174.986,380.856
					c0,0,2.924,5.915,2.447,10.824"/>
				<path style="fill:none;stroke:#A1CEFF;stroke-linecap:round;stroke-linejoin:round;stroke-miterlimit:10;" d="M200.847,392.336
					c0,0,8.439,8.019,8.404,19.454"/>
				<path style="fill:none;stroke:#A1CEFF;stroke-linecap:round;stroke-linejoin:round;stroke-miterlimit:10;" d="M193.364,424.977
					c0,0,23.176,4.341,30.835-4.106"/>
				<path style="fill:none;stroke:#A1CEFF;stroke-linecap:round;stroke-linejoin:round;stroke-miterlimit:10;" d="M234.256,416.089
					c0,0,4.191,8.652,3.338,14.035"/>
				<path style="fill:none;stroke:#A1CEFF;stroke-linecap:round;stroke-linejoin:round;stroke-miterlimit:10;" d="M220.85,440.866
					c0,0,20.791,0.468,24.149-4.608"/>
			</g>
			<g>
				<path style="fill:#F4D3D5;" d="M268.957,452.027c-0.629-2.177-3.534-3.805-6.89-4.786c1.756-1.274,4.875-4.792,5.665-6.602
					c3.193-7.312-3.613-6.677-6.066-6.142c-2.453,0.535,0.518-5.099-4.071-5.844c-4.46-0.725-6.659,4.069-7.19,9.545
					c-1.245-2.732-4.497-5.591-6.85-6.887c-6.989-3.849-6.98,2.986-6.672,5.477c0.308,2.491-5.309,0.129-5.209,4.777
					c0.062,2.906,3.968,5.906,8.065,7.795c-2.465,1.154-4.671,2.712-5.899,4.824c-4.012,6.897,2.821,7.048,5.319,6.799
					c2.498-0.249,0.004,5.31,4.653,5.32c2.962,0.006,6.11-3.976,8.089-8.112c2.132,3.075,4.922,5.982,8.204,6.798
					c7.743,1.926,5.979-4.678,5.042-7.007C264.212,455.653,270.246,456.494,268.957,452.027z"/>
				<circle style="fill:#FF8D95;" cx="251.483" cy="447.963" r="5.847"/>
			</g>
		</g>
	</g>
</g>
</svg>
